0
SECTION
2
HEADER
9
$INSUNITS
70
4
0
ENDSEC
0
SECTION
2
TABLES
0
TABLE
2
LTYPE
0
LTYPE
72
65
70
64
2
CONTINUOUS
3
______
73
0
40
0
0
ENDTAB
0
TABLE
2
LAYER
0
ENDTAB
0
ENDSEC
0
SECTION
2
ENTITIES
0
LINE
8
front_outsideCutPath
10
0
20
50
11
0
21
3
0
LINE
8
front_outsideCutPath
10
0
20
3
11
50
21
3
0
LINE
8
front_outsideCutPath
10
50
20
3
11
50
21
50
0
LINE
8
front_outsideCutPath
10
50
20
50
11
0
21
50
0
LINE
8
front_labelLayer
10
17.2133301
20
27.9803242
11
17.2133301
21
27.3882344
0
LINE
8
front_labelLayer
10
17.2133301
20
27.3882344
11
15.9327636
21
27.3882344
0
LINE
8
front_labelLayer
10
15.9327636
20
27.3882344
11
15.9327636
21
22.9498555
0
LINE
8
front_labelLayer
10
15.9327636
20
22.9498555
11
15.1708496
21
22.9498555
0
LINE
8
front_labelLayer
10
15.1708496
20
22.9498555
11
15.1708496
21
27.3882344
0
LINE
8
front_labelLayer
10
15.1708496
20
27.3882344
11
14.2712402
21
27.3882344
0
LINE
8
front_labelLayer
10
14.2712402
20
27.3882344
11
14.2712402
21
27.7324726
0
LINE
8
front_labelLayer
10
14.2712402
20
27.7324726
11
15.1708496
21
28.0078633
0
LINE
8
front_labelLayer
10
15.1708496
20
28.0078633
11
15.1708496
21
28.2878437
0
LINE
8
front_labelLayer
10
17.7273926
20
29.9814961
11
17.5300293
21
29.3710469
0
LINE
8
front_labelLayer
10
15.9327636
20
28.3062031
11
15.9327636
21
27.9803242
0
LINE
8
front_labelLayer
10
15.9327636
20
27.9803242
11
17.2133301
21
27.9803242
0
ARC
8
front_labelLayer
10
18.2586231
20
28.3233416
40
3.0879775
50
167.577592
51
180.6586588
0
ARC
8
front_labelLayer
10
16.8065512
20
28.6618813
40
1.5971799
50
141.7433584
51
168.2322237
0
ARC
8
front_labelLayer
10
16.5701279
20
28.785277
40
1.3360421
50
98.2551614
51
139.6203406
0
ARC
8
front_labelLayer
10
16.7777124
20
27.8263132
40
2.3158658
50
89.6696616
51
99.9314197
0
ARC
8
front_labelLayer
10
16.778291
20
27.6886116
40
2.4535622
50
81.564134
51
89.7017121
0
ARC
8
front_labelLayer
10
16.6058012
20
26.4852362
40
3.6692273
50
75.9740354
51
81.6564876
0
ARC
8
front_labelLayer
10
16.3097833
20
25.2574323
40
4.9321796
50
73.2964154
51
76.0946185
0
ARC
8
front_labelLayer
10
16.3843282
20
25.8530116
40
3.6998923
50
71.9613811
51
76.5918007
0
ARC
8
front_labelLayer
10
16.6713785
20
27.0706978
40
2.4488358
50
76.5183417
51
83.021652
0
ARC
8
front_labelLayer
10
16.7713663
20
27.8747747
40
1.6385681
50
83.0760751
51
89.7926939
0
ARC
8
front_labelLayer
10
16.7680764
20
28.4858424
40
1.0275309
50
89.4859651
51
103.4196955
0
ARC
8
front_labelLayer
10
16.6754373
20
28.841757
40
0.659877
50
102.7677538
51
144.33802
0
ARC
8
front_labelLayer
10
16.8620665
20
28.7216782
40
0.8815857
50
145.0688528
51
162.1801428
0
ARC
8
front_labelLayer
10
17.501937
20
28.5063921
40
1.5566671
50
161.8436956
51
171.7847207
0
ARC
8
front_labelLayer
10
18.545602
20
28.3496349
40
2.6120285
50
171.6527521
51
178.4383577
0
ARC
8
front_labelLayer
10
19.5301041
20
28.3076578
40
3.5973407
50
178.1973541
51
180.0231689
0
LINE
8
front_labelLayer
10
21.0274902
20
28.017043
11
20.9219238
21
27.310207
0
LINE
8
front_labelLayer
10
18.8932129
20
25.6486836
11
18.8932129
21
22.9498555
0
LINE
8
front_labelLayer
10
18.8932129
20
22.9498555
11
18.1312988
21
22.9498555
0
LINE
8
front_labelLayer
10
18.1312988
20
22.9498555
11
18.1312988
21
27.9803242
0
LINE
8
front_labelLayer
10
18.1312988
20
27.9803242
11
18.7601074
21
27.9803242
0
LINE
8
front_labelLayer
10
18.7601074
20
27.9803242
11
18.8473144
21
27.0485859
0
LINE
8
front_labelLayer
10
18.8473144
20
27.0485859
11
18.8840332
21
27.0485859
0
ARC
8
front_labelLayer
10
20.4340432
20
24.5743504
40
3.4977794
50
84.992255
51
90.1281372
0
ARC
8
front_labelLayer
10
20.5180419
20
25.5154425
40
2.5529478
50
78.4891803
51
85.0265876
0
ARC
8
front_labelLayer
10
20.1920191
20
24.0326259
40
3.3578712
50
77.4453179
51
81.6360825
0
ARC
8
front_labelLayer
10
20.3382991
20
25.0409224
40
2.3390217
50
81.5884966
51
87.1915778
0
ARC
8
front_labelLayer
10
20.3700817
20
25.5920873
40
1.7869677
50
87.3435322
51
89.9659841
0
ARC
8
front_labelLayer
10
20.3626992
20
26.0589092
40
1.3201725
50
89.6335537
51
137.0880592
0
ARC
8
front_labelLayer
10
20.6867121
20
25.6945516
40
1.8061533
50
135.6209222
51
138.8376923
0
ARC
8
front_labelLayer
10
20.6392186
20
25.7409099
40
1.739889
50
138.9575841
51
174.5422163
0
ARC
8
front_labelLayer
10
21.2058655
20
25.652245
40
2.3126556
50
173.6907253
51
180.0882331
0
ARC
8
front_labelLayer
10
21.1257505
20
25.785612
40
2.5730137
50
139.4139415
51
150.6032767
0
ARC
8
front_labelLayer
10
20.6644075
20
26.1809334
40
1.9654642
50
124.2321676
51
139.4160937
0
ARC
8
front_labelLayer
10
20.4177293
20
26.5532914
40
1.5188535
50
89.6796767
51
124.4405599
0
ARC
8
front_labelLayer
10
22.3748917
20
25.4431487
40
3.9355981
50
349.1761771
51
0.3862492
0
ARC
8
front_labelLayer
10
23.6999201
20
25.1789999
40
2.5845605
50
330.2506827
51
349.4116669
0
ARC
8
front_labelLayer
10
24.1076905
20
24.9670563
40
2.1254436
50
318.1439634
51
329.7566156
0
ARC
8
front_labelLayer
10
24.1812873
20
24.9080752
40
2.0312779
50
278.8959153
51
317.9979138
0
ARC
8
front_labelLayer
10
23.9916531
20
25.8166247
40
2.9585944
50
269.7503076
51
279.8033418
0
ARC
8
front_labelLayer
10
23.9609001
20
25.3047158
40
2.4467224
50
253.5436968
51
270.4182304
0
ARC
8
front_labelLayer
10
23.8794536
20
24.9896584
40
2.1215278
50
238.8115463
51
253.2428226
0
ARC
8
front_labelLayer
10
23.8531656
20
24.9367961
40
2.0626983
50
207.7946836
51
238.6758143
0
ARC
8
front_labelLayer
10
24.2301762
20
25.1677125
40
2.5040503
50
205.6558603
51
208.446184
0
ARC
8
front_labelLayer
10
24.520871
20
25.2888534
40
2.8185849
50
188.9102573
51
205.3171365
0
ARC
8
front_labelLayer
10
25.4999399
20
25.4546764
40
3.8115418
50
179.7744683
51
189.0932996
0
ARC
8
front_labelLayer
10
25.644373
20
25.4964747
40
3.956036
50
169.2442945
51
180.3880787
0
ARC
8
front_labelLayer
10
24.3009373
20
25.7620227
40
2.586665
50
150.7111528
51
169.4695288
0
ARC
8
front_labelLayer
10
23.8720688
20
25.9822629
40
2.1049515
50
138.1759666
51
150.2287568
0
ARC
8
front_labelLayer
10
23.8007283
20
26.0370077
40
2.0152937
50
99.1759289
51
137.9832782
0
ARC
8
front_labelLayer
10
23.997081
20
25.1129407
40
2.9592126
50
89.7326569
51
100.0759493
0
ARC
8
front_labelLayer
10
24.0363243
20
25.5120255
40
2.5602219
50
73.5222702
51
90.569239
0
ARC
8
front_labelLayer
10
24.1864652
20
26.0575277
40
1.994566
50
41.144576
51
73.2133767
0
ARC
8
front_labelLayer
10
23.8998539
20
25.8111907
40
2.3724813
50
13.501454
51
41.0703243
0
ARC
8
front_labelLayer
10
22.7925596
20
25.5214254
40
3.5169027
50
1.1276966
51
13.8800274
0
ARC
8
front_labelLayer
10
21.8386747
20
25.4703119
40
4.4717257
50
359.9918994
51
1.5419474
0
ARC
8
front_labelLayer
10
26.3361538
20
25.4498805
40
3.8583238
50
179.7059823
51
187.916085
0
ARC
8
front_labelLayer
10
24.9210325
20
25.2465988
40
2.4286995
50
187.7639129
51
200.0976983
0
ARC
8
front_labelLayer
10
24.141452
20
24.9609579
40
1.5984368
50
200.0845569
51
216.9132005
0
ARC
8
front_labelLayer
10
23.8567836
20
24.7576903
40
1.2487764
50
217.3009571
51
261.7098993
0
ARC
8
front_labelLayer
10
23.9889391
20
25.3883175
40
1.8922884
50
260.5032866
51
270.2476804
0
ARC
8
front_labelLayer
10
24.0141643
20
25.2656903
40
1.7697255
50
269.4481433
51
284.7255945
0
ARC
8
front_labelLayer
10
24.1542622
20
24.746114
40
1.2316084
50
284.5662521
51
322.6333676
0
ARC
8
front_labelLayer
10
23.8267022
20
24.9827606
40
1.6356017
50
323.0089423
51
342.6390432
0
ARC
8
front_labelLayer
10
22.8898033
20
25.2889643
40
2.6212182
50
342.3616013
51
353.7537379
0
ARC
8
front_labelLayer
10
21.5076099
20
25.4555693
40
4.0133621
50
353.5363029
51
0.2014433
0
ARC
8
front_labelLayer
10
21.7193796
20
25.4890843
40
3.8016172
50
359.707543
51
7.8972737
0
ARC
8
front_labelLayer
10
23.1116283
20
25.6886763
40
2.3951576
50
7.7439921
51
20.0690072
0
ARC
8
front_labelLayer
10
23.8874525
20
25.973374
40
1.5687473
50
20.0257107
51
37.4350361
0
ARC
8
front_labelLayer
10
24.1448661
20
26.1560304
40
1.2533722
50
37.9577631
51
80.4006095
0
ARC
8
front_labelLayer
10
23.9985863
20
25.5033379
40
1.9216447
50
79.3453706
51
90.317449
0
ARC
8
front_labelLayer
10
23.9715011
20
25.6117654
40
1.8132622
50
89.4805724
51
103.8805191
0
ARC
8
front_labelLayer
10
23.8191404
20
26.1919521
40
1.2134983
50
103.4685188
51
142.3118965
0
ARC
8
front_labelLayer
10
24.1153412
20
25.9836414
40
1.5753341
50
142.9025421
51
162.3749495
0
ARC
8
front_labelLayer
10
25.0486769
20
25.6726092
40
2.5590711
50
162.0652961
51
173.167469
0
ARC
8
front_labelLayer
10
26.5040084
20
25.4869929
40
4.0261646
50
173.0086447
51
180.2463834
0
LINE
8
front_labelLayer
10
31.8503418
20
22.9498555
11
31.0884277
21
22.9498555
0
LINE
8
front_labelLayer
10
31.0884277
20
22.9498555
11
31.0884277
21
26.2040547
0
LINE
8
front_labelLayer
10
28.407959
20
25.5890156
11
28.407959
21
22.9498555
0
LINE
8
front_labelLayer
10
28.407959
20
22.9498555
11
27.6460449
21
22.9498555
0
LINE
8
front_labelLayer
10
27.6460449
20
22.9498555
11
27.6460449
21
27.9803242
0
LINE
8
front_labelLayer
10
27.6460449
20
27.9803242
11
28.2656738
21
27.9803242
0
LINE
8
front_labelLayer
10
28.2656738
20
27.9803242
11
28.3895996
21
27.2918476
0
LINE
8
front_labelLayer
10
28.3895996
20
27.2918476
11
28.4263183
21
27.2918476
0
LINE
8
front_labelLayer
10
31.8503418
20
26.2315937
11
31.8503418
21
22.9498555
0
ARC
8
front_labelLayer
10
28.9347231
20
26.2164062
40
2.15374
50
359.6714119
51
8.6877219
0
ARC
8
front_labelLayer
10
29.7329512
20
26.3429984
40
1.3455567
50
8.493199
51
22.6579444
0
ARC
8
front_labelLayer
10
30.138523
20
26.5115407
40
0.9063594
50
22.7024199
51
42.3420112
0
ARC
8
front_labelLayer
10
30.1841076
20
26.532047
40
0.8589948
50
43.3790524
51
71.5386176
0
ARC
8
front_labelLayer
10
30.0136364
20
26.0557071
40
1.3648464
50
71.0827989
51
84.3691449
0
ARC
8
front_labelLayer
10
29.9371109
20
25.4050714
40
2.0198889
50
84.0197724
51
90.1510143
0
ARC
8
front_labelLayer
10
29.9154193
20
25.1190486
40
2.3059626
50
89.5933087
51
100.3717911
0
ARC
8
front_labelLayer
10
29.7524606
20
25.9740437
40
1.4356138
50
100.1176789
51
118.1602295
0
ARC
8
front_labelLayer
10
29.5882366
20
26.2960755
40
1.074221
50
118.5439599
51
139.1926703
0
ARC
8
front_labelLayer
10
29.7314298
20
26.199992
40
1.2455723
50
140.151921
51
160.3146396
0
ARC
8
front_labelLayer
10
30.5961314
20
25.8761121
40
2.1688814
50
159.9534497
51
171.3800946
0
ARC
8
front_labelLayer
10
32.008652
20
25.6490569
40
3.5995002
50
171.1766097
51
178.321736
0
ARC
8
front_labelLayer
10
33.2891435
20
25.5910308
40
4.8811849
50
178.0811114
51
180.0236545
0
ARC
8
front_labelLayer
10
29.7296883
20
26.4663804
40
1.5427798
50
116.9442884
51
147.6525681
0
ARC
8
front_labelLayer
10
29.8902783
20
26.1977969
40
1.8550991
50
115.8073958
51
117.6069832
0
ARC
8
front_labelLayer
10
29.9723687
20
26.0063709
40
2.0631919
50
94.3226922
51
115.5454112
0
ARC
8
front_labelLayer
10
30.0217501
20
25.5773254
40
2.4947964
50
89.9578831
51
94.7108734
0
ARC
8
front_labelLayer
10
30.0421618
20
25.064031
40
3.0081474
50
80.5584988
51
90.3538522
0
ARC
8
front_labelLayer
10
30.2301516
20
26.1529298
40
1.9031736
50
65.1094191
51
80.7638068
0
ARC
8
front_labelLayer
10
30.4499051
20
26.6396783
40
1.3691575
50
46.5584469
51
64.8782285
0
ARC
8
front_labelLayer
10
30.4674926
20
26.6903808
40
1.3204352
50
19.3849073
51
45.5997112
0
ARC
8
front_labelLayer
10
29.7035768
20
26.4037476
40
2.1362479
50
6.963372
51
19.8363231
0
ARC
8
front_labelLayer
10
28.5253568
20
26.2453372
40
3.3250134
50
359.763176
51
7.2115225
0
LINE
8
front_labelLayer
10
35.7287597
20
23.578664
11
35.7287597
21
22.9957539
0
LINE
8
front_labelLayer
10
33.4705566
20
24.3956562
11
33.4705566
21
27.3882344
0
LINE
8
front_labelLayer
10
33.4705566
20
27.3882344
11
32.7499511
21
27.3882344
0
LINE
8
front_labelLayer
10
32.7499511
20
27.3882344
11
32.7499511
21
27.7554219
0
LINE
8
front_labelLayer
10
32.7499511
20
27.7554219
11
33.4705566
21
28.0721211
0
LINE
8
front_labelLayer
10
33.4705566
20
28.0721211
11
33.7918457
21
29.1461445
0
LINE
8
front_labelLayer
10
33.7918457
20
29.1461445
11
34.2324707
21
29.1461445
0
LINE
8
front_labelLayer
10
34.2324707
20
29.1461445
11
34.2324707
21
27.9803242
0
LINE
8
front_labelLayer
10
34.2324707
20
27.9803242
11
35.692041
21
27.9803242
0
LINE
8
front_labelLayer
10
35.692041
20
27.9803242
11
35.692041
21
27.3882344
0
LINE
8
front_labelLayer
10
35.692041
20
27.3882344
11
34.2324707
21
27.3882344
0
LINE
8
front_labelLayer
10
34.2324707
20
27.3882344
11
34.2324707
21
24.4277851
0
ARC
8
front_labelLayer
10
35.0455071
20
25.9890986
40
2.5022369
50
269.8803843
51
278.3028385
0
ARC
8
front_labelLayer
10
35.0688586
20
25.7976074
40
2.3093853
50
278.4156143
51
279.0073824
0
ARC
8
front_labelLayer
10
34.7885282
20
27.5882749
40
4.1218609
50
278.959056
51
280.5104204
0
ARC
8
front_labelLayer
10
35.0561534
20
26.1522878
40
2.6611489
50
280.4847942
51
282.6269272
0
ARC
8
front_labelLayer
10
35.2908096
20
25.1098178
40
1.5925961
50
282.5875343
51
285.5794088
0
ARC
8
front_labelLayer
10
35.4081703
20
24.6781448
40
1.1452667
50
285.7238511
51
286.2557648
0
ARC
8
front_labelLayer
10
35.408442
20
23.6732408
40
0.7493944
50
287.9886431
51
295.3049186
0
ARC
8
front_labelLayer
10
35.2276666
20
24.2201697
40
1.3254203
50
283.3069788
51
288.1196902
0
ARC
8
front_labelLayer
10
35.0367448
20
25.0165547
40
2.1443687
50
280.0069413
51
283.373592
0
ARC
8
front_labelLayer
10
34.9091451
20
25.7089794
40
2.848437
50
279.1859508
51
280.1143059
0
ARC
8
front_labelLayer
10
34.8305463
20
26.1560178
40
3.3022958
50
275.5260213
51
279.2939739
0
ARC
8
front_labelLayer
10
34.9189158
20
25.2330055
40
2.3750635
50
270.8932568
51
275.5483426
0
ARC
8
front_labelLayer
10
34.9300195
20
24.8115627
40
1.953504
50
270.0031518
51
270.7603288
0
ARC
8
front_labelLayer
10
34.8993807
20
24.8478229
40
1.9900019
50
253.784764
51
270.8852757
0
ARC
8
front_labelLayer
10
34.6636185
20
24.0437876
40
1.1521173
50
190.3817696
51
253.8772347
0
ARC
8
front_labelLayer
10
35.8652995
20
24.3687013
40
2.3948947
50
179.3551141
51
192.8477746
0
ARC
8
front_labelLayer
10
35.7666828
20
24.4181886
40
1.5342421
50
179.6416188
51
189.750554
0
ARC
8
front_labelLayer
10
35.2250614
20
24.3215843
40
0.98409
50
189.5479215
51
205.7874062
0
ARC
8
front_labelLayer
10
35.0024822
20
24.2189453
40
0.7390383
50
206.129437
51
221.4084346
0
ARC
8
front_labelLayer
10
34.9775265
20
24.2000092
40
0.7078002
50
221.5949328
51
262.3505266
0
ARC
8
front_labelLayer
10
35.036884
20
24.5052441
40
1.0183828
50
261.3265814
51
270.1912435
0
LINE
8
left_outsideCutPath
10
53
20
50
11
53
21
3
0
LINE
8
left_outsideCutPath
10
53
20
3
11
97
21
3
0
LINE
8
left_outsideCutPath
10
97
20
3
11
97
21
50
0
LINE
8
left_outsideCutPath
10
97
20
50
11
53
21
50
0
LINE
8
left_labelLayer
10
69.5580078
20
29.8623978
11
69.5580078
21
23.1764603
0
LINE
8
left_labelLayer
10
69.5580078
20
23.1764603
11
68.8447266
21
23.1764603
0
LINE
8
left_labelLayer
10
68.8447266
20
23.1764603
11
68.8447266
21
29.8623978
0
LINE
8
left_labelLayer
10
68.8447266
20
29.8623978
11
69.5580078
21
29.8623978
0
LINE
8
left_labelLayer
10
74.7916016
20
25.8534134
11
74.7916016
21
25.4022416
0
LINE
8
left_labelLayer
10
74.7916016
20
25.4022416
11
71.5474609
21
25.4022416
0
LINE
8
left_labelLayer
10
74.5896484
20
24.0315384
11
74.5896484
21
23.3956009
0
LINE
8
left_labelLayer
10
71.5646484
20
25.9823197
11
74.0267578
21
25.9823197
0
ARC
8
left_labelLayer
10
73.0365068
20
25.8621999
40
2.7717764
50
256.0088006
51
270.48483
0
ARC
8
left_labelLayer
10
72.8346679
20
25.0786175
40
1.9626517
50
223.5465774
51
256.1956929
0
ARC
8
left_labelLayer
10
72.9460139
20
25.1595452
40
2.0991893
50
194.0877332
51
223.0538115
0
ARC
8
left_labelLayer
10
73.9662407
20
25.4385401
40
3.1567198
50
181.3574523
51
194.4920041
0
ARC
8
left_labelLayer
10
74.8827115
20
25.4916796
40
4.0743133
50
179.9888011
51
181.7992159
0
ARC
8
left_labelLayer
10
74.5537382
20
25.5176003
40
3.745424
50
168.9539261
51
180.3843437
0
ARC
8
left_labelLayer
10
73.3304986
20
25.7666728
40
2.4971454
50
149.4070867
51
169.1853774
0
ARC
8
left_labelLayer
10
72.9896848
20
25.9467453
40
2.1122066
50
140.1056235
51
148.9067478
0
ARC
8
left_labelLayer
10
72.7803001
20
26.1397878
40
1.8278004
50
92.4762582
51
140.5386416
0
ARC
8
left_labelLayer
10
72.8736001
20
25.4503523
40
2.5214209
50
89.9637504
51
93.9176669
0
ARC
8
left_labelLayer
10
72.8958652
20
25.7987767
40
2.1730944
50
74.2125709
51
90.5449906
0
ARC
8
left_labelLayer
10
73.0319742
20
26.3002571
40
1.6535092
50
41.2064505
51
74.0232828
0
ARC
8
left_labelLayer
10
72.7742136
20
26.0771831
40
1.9943894
50
11.5994069
51
41.149614
0
ARC
8
left_labelLayer
10
71.8885494
20
25.8729311
40
2.9031178
50
359.6147978
51
12.033644
0
ARC
8
left_labelLayer
10
74.4097423
20
25.4594349
40
2.8628528
50
181.144716
51
190.8007007
0
ARC
8
left_labelLayer
10
73.3997618
20
25.2602391
40
1.8334473
50
190.6005937
51
206.0274957
0
ARC
8
left_labelLayer
10
72.9529054
20
25.0489869
40
1.3392261
50
206.2950527
51
222.5558217
0
ARC
8
left_labelLayer
10
72.9133102
20
25.0282539
40
1.2960888
50
223.0644845
51
258.1401523
0
ARC
8
left_labelLayer
10
73.0709371
20
25.6773
40
1.963786
50
257.5312
51
270.4319603
0
ARC
8
left_labelLayer
10
73.0726974
20
27.4807773
40
3.7672302
50
270.1983991
51
292.2090474
0
ARC
8
left_labelLayer
10
72.8922246
20
27.9992848
40
4.3155833
50
291.8252818
51
293.1615066
0
ARC
8
left_labelLayer
10
72.88311
20
27.3229649
40
4.2821095
50
287.9023419
51
293.4861582
0
ARC
8
left_labelLayer
10
73.1937384
20
26.3645844
40
3.2746462
50
281.9936164
51
287.8850822
0
ARC
8
left_labelLayer
10
73.2690265
20
26.0939999
40
2.9943739
50
275.9054917
51
281.6603609
0
ARC
8
left_labelLayer
10
73.1183206
20
27.5007501
40
4.4091673
50
271.9120091
51
275.9726555
0
ARC
8
left_labelLayer
10
73.0633106
20
28.9018678
40
5.8113461
50
269.9669744
51
271.993166
0
ARC
8
left_labelLayer
10
72.8529134
20
25.9685323
40
1.4060415
50
89.4422019
51
106.2089542
0
ARC
8
left_labelLayer
10
72.7683262
20
26.2769535
40
1.086279
50
106.4657289
51
137.9176267
0
ARC
8
left_labelLayer
10
73.0108455
20
26.0639815
40
1.4090131
50
138.0994744
51
160.5866161
0
ARC
8
left_labelLayer
10
73.6342292
20
25.8346482
40
2.0732004
50
160.335308
51
172.5315565
0
ARC
8
left_labelLayer
10
74.2482968
20
25.7362662
40
2.6949047
50
172.1545834
51
174.7614155
0
ARC
8
left_labelLayer
10
71.5961888
20
25.9961284
40
2.4306082
50
359.6744901
51
8.9224284
0
ARC
8
left_labelLayer
10
72.4647063
20
26.1376394
40
1.5506608
50
8.7342074
51
23.2772331
0
ARC
8
left_labelLayer
10
72.8770189
20
26.310719
40
1.1035184
50
23.4821335
51
39.7072247
0
ARC
8
left_labelLayer
10
72.9782969
20
26.3865086
40
0.977205
50
40.0822749
51
80.6243327
0
ARC
8
left_labelLayer
10
72.8740458
20
25.9086205
40
1.4659057
50
79.6468667
51
90.2909634
0
LINE
8
left_labelLayer
10
78.1302734
20
27.8858353
11
78.1302734
21
27.3315384
0
LINE
8
left_labelLayer
10
78.1302734
20
27.3315384
11
76.9314453
21
27.3315384
0
LINE
8
left_labelLayer
10
76.9314453
20
27.3315384
11
76.9314453
21
23.1764603
0
LINE
8
left_labelLayer
10
76.9314453
20
23.1764603
11
76.2181641
21
23.1764603
0
LINE
8
left_labelLayer
10
76.2181641
20
23.1764603
11
76.2181641
21
27.3315384
0
LINE
8
left_labelLayer
10
76.2181641
20
27.3315384
11
75.3759766
21
27.3315384
0
LINE
8
left_labelLayer
10
75.3759766
20
27.3315384
11
75.3759766
21
27.6538041
0
LINE
8
left_labelLayer
10
75.3759766
20
27.6538041
11
76.2181641
21
27.9116166
0
LINE
8
left_labelLayer
10
76.2181641
20
27.9116166
11
76.2181641
21
28.1737259
0
LINE
8
left_labelLayer
10
78.6115234
20
29.7592728
11
78.4267578
21
29.1877884
0
LINE
8
left_labelLayer
10
76.9314453
20
28.1909134
11
76.9314453
21
27.8858353
0
LINE
8
left_labelLayer
10
76.9314453
20
27.8858353
11
78.1302734
21
27.8858353
0
ARC
8
left_labelLayer
10
79.1088487
20
28.2069579
40
2.8908757
50
167.577604
51
180.6586569
0
ARC
8
left_labelLayer
10
77.7494613
20
28.5238878
40
1.4952345
50
141.7433779
51
168.2322027
0
ARC
8
left_labelLayer
10
77.5281267
20
28.639408
40
1.2507628
50
98.2551555
51
139.6203332
0
ARC
8
left_labelLayer
10
77.7224633
20
27.7416461
40
2.1680535
50
89.6697186
51
99.9314351
0
ARC
8
left_labelLayer
10
77.7230058
20
27.6127731
40
2.2969214
50
81.5640973
51
89.7017838
0
ARC
8
left_labelLayer
10
77.561527
20
26.4862062
40
3.4349933
50
75.973988
51
81.6564864
0
ARC
8
left_labelLayer
10
77.284402
20
25.3367555
40
4.6173489
50
73.2964024
51
76.0946119
0
ARC
8
left_labelLayer
10
77.3541784
20
25.8942846
40
3.4637543
50
71.9613754
51
76.5917611
0
ARC
8
left_labelLayer
10
77.6229155
20
27.0342669
40
2.29253
50
76.5183857
51
83.0216873
0
ARC
8
left_labelLayer
10
77.7165218
20
27.7870326
40
1.5339689
50
83.0760942
51
89.7927553
0
ARC
8
left_labelLayer
10
77.7134402
20
28.3590921
40
0.9619382
50
89.4859599
51
103.4197716
0
ARC
8
left_labelLayer
10
77.6267139
20
28.6922835
40
0.6177567
50
102.7677336
51
144.3380341
0
ARC
8
left_labelLayer
10
77.8014354
20
28.5798667
40
0.8253192
50
145.06891
51
162.1800983
0
ARC
8
left_labelLayer
10
78.4004788
20
28.3783201
40
1.4573258
50
161.8437818
51
171.7846666
0
ARC
8
left_labelLayer
10
79.377482
20
28.231576
40
2.4452783
50
171.6527382
51
178.4384129
0
ARC
8
left_labelLayer
10
80.2991243
20
28.1922753
40
3.3676793
50
178.1973319
51
180.0231706
0
LINE
8
left_labelLayer
10
81.1552734
20
23.7651322
11
81.1552734
21
23.2194291
0
LINE
8
left_labelLayer
10
79.0412109
20
24.5299759
11
79.0412109
21
27.3315384
0
LINE
8
left_labelLayer
10
79.0412109
20
27.3315384
11
78.3666016
21
27.3315384
0
LINE
8
left_labelLayer
10
78.3666016
20
27.3315384
11
78.3666016
21
27.6752884
0
LINE
8
left_labelLayer
10
78.3666016
20
27.6752884
11
79.0412109
21
27.9717728
0
LINE
8
left_labelLayer
10
79.0412109
20
27.9717728
11
79.3419922
21
28.9772416
0
LINE
8
left_labelLayer
10
79.3419922
20
28.9772416
11
79.7544922
21
28.9772416
0
LINE
8
left_labelLayer
10
79.7544922
20
28.9772416
11
79.7544922
21
27.8858353
0
LINE
8
left_labelLayer
10
79.7544922
20
27.8858353
11
81.1208984
21
27.8858353
0
LINE
8
left_labelLayer
10
81.1208984
20
27.8858353
11
81.1208984
21
27.3315384
0
LINE
8
left_labelLayer
10
81.1208984
20
27.3315384
11
79.7544922
21
27.3315384
0
LINE
8
left_labelLayer
10
79.7544922
20
27.3315384
11
79.7544922
21
24.5600541
0
ARC
8
left_labelLayer
10
80.5156351
20
26.0217023
40
2.3425128
50
269.8803239
51
278.3028034
0
ARC
8
left_labelLayer
10
80.5382143
20
25.8376264
40
2.1571096
50
278.4153931
51
279.0084967
0
ARC
8
left_labelLayer
10
80.2751908
20
27.5180568
40
3.8579981
50
278.958831
51
280.5105033
0
ARC
8
left_labelLayer
10
80.5254944
20
26.1750114
40
2.4918279
50
280.4849518
51
282.6266209
0
ARC
8
left_labelLayer
10
80.7452993
20
25.1984579
40
1.4908438
50
282.5875141
51
285.5795836
0
ARC
8
left_labelLayer
10
80.8545117
20
24.7966707
40
1.0744904
50
285.7241341
51
286.2548965
0
ARC
8
left_labelLayer
10
80.8553925
20
23.8536946
40
0.7015849
50
287.9887761
51
295.3047991
0
ARC
8
left_labelLayer
10
80.686167
20
24.3656826
40
1.2408107
50
283.306971
51
288.1197149
0
ARC
8
left_labelLayer
10
80.5074442
20
25.1111762
40
2.0074261
50
280.0068636
51
283.3736283
0
ARC
8
left_labelLayer
10
80.3879382
20
25.7596639
40
2.6668191
50
279.1860599
51
280.1143463
0
ARC
8
left_labelLayer
10
80.3143952
20
26.1779764
40
3.0915129
50
275.5259727
51
279.2939228
0
ARC
8
left_labelLayer
10
80.3971225
20
25.3138562
40
2.2234425
50
270.8932431
51
275.5483731
0
ARC
8
left_labelLayer
10
80.407532
20
24.9172555
40
1.8267327
50
270.0026724
51
270.7607113
0
ARC
8
left_labelLayer
10
80.3788341
20
24.9532853
40
1.8629849
50
253.7847834
51
270.8852544
0
ARC
8
left_labelLayer
10
80.1581196
20
24.2005667
40
1.0785775
50
190.3817581
51
253.8772476
0
ARC
8
left_labelLayer
10
81.2831051
20
24.5047415
40
2.2420361
50
179.3551152
51
192.8477328
0
ARC
8
left_labelLayer
10
81.190775
20
24.551072
40
1.4363109
50
179.6416964
51
189.7506366
0
ARC
8
left_labelLayer
10
80.6837252
20
24.460632
40
0.9212748
50
189.5479292
51
205.7874297
0
ARC
8
left_labelLayer
10
80.4753537
20
24.364544
40
0.6918651
50
206.1294189
51
221.4084283
0
ARC
8
left_labelLayer
10
80.4519915
20
24.3468167
40
0.6626214
50
221.5949026
51
262.3505059
0
ARC
8
left_labelLayer
10
80.5075601
20
24.6325852
40
0.9533958
50
261.3267224
51
270.1912333
0
LINE
8
back_outsideCutPath
10
0
20
100
11
0
21
53
0
LINE
8
back_outsideCutPath
10
0
20
53
11
50
21
53
0
LINE
8
back_outsideCutPath
10
50
20
53
11
50
21
100
0
LINE
8
back_outsideCutPath
10
50
20
100
11
0
21
100
0
LINE
8
back_labelLayer
10
16.0176758
20
73.6222198
11
15.9625977
21
73.6222198
0
LINE
8
back_labelLayer
10
15.9625977
20
73.6222198
11
15.8019531
21
72.9750518
0
LINE
8
back_labelLayer
10
15.8019531
20
72.9750518
11
15.2557617
21
72.9750518
0
LINE
8
back_labelLayer
10
15.2557617
20
72.9750518
11
15.2557617
21
80.1168487
0
LINE
8
back_labelLayer
10
15.2557617
20
80.1168487
11
16.0176758
21
80.1168487
0
LINE
8
back_labelLayer
10
16.0176758
20
80.1168487
11
16.0176758
21
78.3818878
0
LINE
8
back_labelLayer
10
15.980957
20
77.3354034
11
16.0176758
21
77.3354034
0
ARC
8
back_labelLayer
10
17.6194384
20
75.7595791
40
2.3286709
50
74.2393112
51
90.5623781
0
ARC
8
back_labelLayer
10
17.7734189
20
76.3244589
40
1.7432118
50
38.5631096
51
74.0670459
0
ARC
8
back_labelLayer
10
17.3771598
20
76.0163435
40
2.2451357
50
16.4709241
51
38.4075322
0
ARC
8
back_labelLayer
10
16.2355869
20
75.6583806
40
3.4414113
50
5.1338582
51
16.7973229
0
ARC
8
back_labelLayer
10
14.7944691
20
75.5052974
40
4.8905028
50
359.8779065
51
5.4093393
0
ARC
8
back_labelLayer
10
15.2177616
20
75.4685202
40
4.4672771
50
350.6562766
51
0.338033
0
ARC
8
back_labelLayer
10
16.775121
20
75.2036307
40
2.8875865
50
335.830607
51
350.8254702
0
ARC
8
back_labelLayer
10
17.4601878
20
74.9079462
40
2.1415365
50
321.3161253
51
335.54363
0
ARC
8
back_labelLayer
10
17.7220854
20
74.6945383
40
1.803715
50
274.0640029
51
321.4081015
0
ARC
8
back_labelLayer
10
17.6000721
20
75.4674173
40
2.5841648
50
269.9226186
51
275.5481768
0
ARC
8
back_labelLayer
10
17.5837341
20
75.1942775
40
2.3110582
50
255.7755686
51
270.3185265
0
ARC
8
back_labelLayer
10
17.51778
20
74.9012521
40
2.0108266
50
245.9801751
51
255.5456148
0
ARC
8
back_labelLayer
10
17.3900424
20
74.6041954
40
1.6875029
50
215.5850259
51
245.8361587
0
ARC
8
back_labelLayer
10
0.1321534
20
78.3684641
40
15.885528
50
358.1123258
51
0.0484166
0
ARC
8
back_labelLayer
10
4.5536788
20
78.2200208
40
11.4615128
50
355.7238368
51
358.1259075
0
ARC
8
back_labelLayer
10
6.4744717
20
78.0883197
40
9.5362542
50
355.471611
51
355.6524158
0
ARC
8
back_labelLayer
10
17.4386124
20
76.3445459
40
1.7322989
50
95.1835161
51
145.1108947
0
ARC
8
back_labelLayer
10
17.5908763
20
75.4859128
40
2.6022314
50
89.8743718
51
96.8145414
0
ARC
8
back_labelLayer
10
17.4704756
20
75.3091549
40
2.141054
50
89.5731605
51
100.7323914
0
ARC
8
back_labelLayer
10
17.3119789
20
76.1099447
40
1.3247727
50
100.446968
51
119.670058
0
ARC
8
back_labelLayer
10
17.1650019
20
76.3847347
40
1.0132901
50
120.1402516
51
142.4249032
0
ARC
8
back_labelLayer
10
17.4081641
20
76.2238752
40
1.3042674
50
143.3382586
51
161.2559601
0
ARC
8
back_labelLayer
10
18.4250073
20
75.8628645
40
2.3832362
50
160.8926807
51
171.2334306
0
ARC
8
back_labelLayer
10
20.1225022
20
75.5890185
40
4.1026543
50
171.0667807
51
177.8456655
0
ARC
8
back_labelLayer
10
21.8878601
20
75.4992339
40
5.8701859
50
177.6176704
51
180.0425342
0
ARC
8
back_labelLayer
10
21.0553485
20
75.4752046
40
5.0377112
50
179.776269
51
185.7075298
0
ARC
8
back_labelLayer
10
19.0691649
20
75.2705578
40
3.0410279
50
185.5925002
51
194.2050712
0
ARC
8
back_labelLayer
10
17.7968216
20
74.9403395
40
1.726573
50
193.9430087
51
208.0218498
0
ARC
8
back_labelLayer
10
17.2820354
20
74.6784532
40
1.1491491
50
208.5536498
51
217.5605377
0
ARC
8
back_labelLayer
10
17.2400946
20
74.661009
40
1.1053306
50
218.1690414
51
253.8047178
0
ARC
8
back_labelLayer
10
17.4451119
20
75.2931013
40
1.7696408
50
253.1382725
51
266.848323
0
ARC
8
back_labelLayer
10
17.5026023
20
75.9711086
40
2.4498662
50
266.3776017
51
270.0510507
0
ARC
8
back_labelLayer
10
17.5210373
20
75.0400291
40
1.5188728
50
269.3869139
51
285.8630388
0
ARC
8
back_labelLayer
10
17.6338803
20
74.6321967
40
1.0957311
50
286.0162879
51
326.8497406
0
ARC
8
back_labelLayer
10
17.0892396
20
74.9930006
40
1.7490317
50
326.710526
51
343.6661472
0
ARC
8
back_labelLayer
10
16.0697009
20
75.3045358
40
2.8150619
50
343.4171693
51
353.6368807
0
ARC
8
back_labelLayer
10
14.5298603
20
75.4872495
40
4.3656798
50
353.4934504
51
0.2205681
0
ARC
8
back_labelLayer
10
14.394124
20
75.5222782
40
4.5014207
50
359.7680577
51
6.3095503
0
ARC
8
back_labelLayer
10
16.0896867
20
75.716856
40
2.7947534
50
6.1648748
51
16.0396179
0
ARC
8
back_labelLayer
10
17.1819816
20
76.0387541
40
1.6560567
50
15.7779314
51
32.0151469
0
ARC
8
back_labelLayer
10
17.5226497
20
76.2338509
40
1.2638634
50
32.703278
51
35.5242695
0
ARC
8
back_labelLayer
10
17.6471669
20
76.3223533
40
1.1110986
50
35.5408239
51
79.8011208
0
ARC
8
back_labelLayer
10
17.4979567
20
75.6880308
40
1.7621566
50
78.6781296
51
90.3749254
0
LINE
8
back_labelLayer
10
24.6741211
20
72.9750518
11
24.1095703
21
72.9750518
0
LINE
8
back_labelLayer
10
24.1095703
20
72.9750518
11
23.9581055
21
73.6910675
0
LINE
8
back_labelLayer
10
23.9581055
20
73.6910675
11
23.9213867
21
73.6910675
0
LINE
8
back_labelLayer
10
23.0768555
20
75.9630401
11
23.9305664
21
75.9905792
0
LINE
8
back_labelLayer
10
23.9305664
20
75.9905792
11
23.9305664
21
76.3026886
0
LINE
8
back_labelLayer
10
21.4382812
20
77.0737823
11
21.2041992
21
77.6566925
0
LINE
8
back_labelLayer
10
24.6741211
20
76.408255
11
24.6741211
21
72.9750518
0
LINE
8
back_labelLayer
10
23.912207
20
74.9945831
11
23.912207
21
75.4489776
0
LINE
8
back_labelLayer
10
23.912207
20
75.4489776
11
23.150293
21
75.4168487
0
ARC
8
back_labelLayer
10
21.4424092
20
75.6483419
40
3.1585206
50
314.7445207
51
321.7071759
0
ARC
8
back_labelLayer
10
22.2184106
20
74.859867
40
2.0522442
50
304.8485568
51
314.8530481
0
ARC
8
back_labelLayer
10
22.591195
20
74.3292441
40
1.4037707
50
294.3932061
51
304.7371996
0
ARC
8
back_labelLayer
10
22.4638354
20
74.6592331
40
1.7570187
50
281.2979179
51
293.7314197
0
ARC
8
back_labelLayer
10
22.2954772
20
75.4751733
40
2.5901359
50
272.9334837
51
281.4139275
0
ARC
8
back_labelLayer
10
22.2396685
20
76.3121304
40
3.4288766
50
269.9539736
51
273.1490903
0
ARC
8
back_labelLayer
10
22.220396
20
75.221404
40
2.3382073
50
258.6719726
51
270.4047655
0
ARC
8
back_labelLayer
10
22.0579805
20
74.444477
40
1.5445275
50
238.3273077
51
258.9183957
0
ARC
8
back_labelLayer
10
21.9460493
20
74.2402759
40
1.312023
50
227.7688981
51
237.8050684
0
ARC
8
back_labelLayer
10
21.9110477
20
74.1914142
40
1.2523375
50
192.082746
51
227.4520936
0
ARC
8
back_labelLayer
10
22.5567019
20
74.3505748
40
1.9171137
50
179.5457288
51
192.6949402
0
ARC
8
back_labelLayer
10
21.9568954
20
74.4199891
40
1.3183622
50
115.4904635
51
182.3568201
0
ARC
8
back_labelLayer
10
22.6171469
20
73.2089513
40
2.6966976
50
101.3568317
51
117.0798597
0
ARC
8
back_labelLayer
10
23.1473909
20
70.731059
40
5.2305846
50
92.4696501
51
101.7064679
0
ARC
8
back_labelLayer
10
23.2998229
20
68.5230187
40
7.4433617
50
91.7165634
51
92.9095356
0
ARC
8
back_labelLayer
10
21.7422143
20
76.3144029
40
2.1883835
50
359.6932951
51
8.0036021
0
ARC
8
back_labelLayer
10
22.5700214
20
76.4349983
40
1.351855
50
7.8272607
51
20.6041183
0
ARC
8
back_labelLayer
10
23.0384772
20
76.614204
40
0.850305
50
20.4094547
51
41.4478974
0
ARC
8
back_labelLayer
10
23.1076946
20
76.65225
40
0.7734319
50
42.7295855
51
71.0380166
0
ARC
8
back_labelLayer
10
22.944743
20
76.2091853
40
1.2454444
50
70.5715668
51
83.9928946
0
ARC
8
back_labelLayer
10
22.8668927
20
75.5768186
40
1.8825194
50
83.6506588
51
90.1753071
0
ARC
8
back_labelLayer
10
22.8805488
20
74.9787774
40
2.4806278
50
90.4484622
51
103.7665422
0
ARC
8
back_labelLayer
10
23.1722579
20
73.7486307
40
3.7448652
50
103.6226591
51
112.4320054
0
ARC
8
back_labelLayer
10
23.6722609
20
72.4861541
40
5.1026462
50
112.2122027
51
115.9641103
0
ARC
8
back_labelLayer
10
22.8715328
20
74.5646429
40
3.5129435
50
106.3568599
51
118.3349877
0
ARC
8
back_labelLayer
10
23.0212891
20
74.1019762
40
3.999081
50
104.5163188
51
106.5488361
0
ARC
8
back_labelLayer
10
22.9114318
20
74.5596266
40
3.5285141
50
90.0714553
51
104.6521074
0
ARC
8
back_labelLayer
10
22.9252788
20
74.8702733
40
3.2179162
50
81.5680027
51
90.3249033
0
ARC
8
back_labelLayer
10
23.1113335
20
76.0823773
40
1.991642
50
68.2273455
51
81.7494194
0
ARC
8
back_labelLayer
10
23.3704765
20
76.7271487
40
1.2967451
50
47.8683183
51
68.2933958
0
ARC
8
back_labelLayer
10
23.412535
20
76.8111282
40
1.2065132
50
19.2331165
51
46.674092
0
ARC
8
back_labelLayer
10
22.711888
20
76.5504875
40
1.9539726
50
6.3379172
51
19.6815086
0
ARC
8
back_labelLayer
10
21.6761523
20
76.4185782
40
2.9979866
50
359.8027081
51
6.6583423
0
ARC
8
back_labelLayer
10
22.4037864
20
75.6097643
40
2.0977573
50
269.5791742
51
282.0414103
0
ARC
8
back_labelLayer
10
22.5568034
20
74.9310551
40
1.4020827
50
281.7120847
51
306.4593976
0
ARC
8
back_labelLayer
10
22.6246469
20
74.8194804
40
1.2720836
50
306.9881208
51
313.8558811
0
ARC
8
back_labelLayer
10
22.6165797
20
74.8171614
40
1.2760222
50
314.1892267
51
347.4269648
0
ARC
8
back_labelLayer
10
21.9773937
20
74.9773382
40
1.9348245
50
346.9177588
51
0.2824839
0
ARC
8
back_labelLayer
10
21.5208966
20
74.9945163
40
2.3913104
50
359.8169709
51
0.0015995
0
ARC
8
back_labelLayer
10
23.3315244
20
69.8254197
40
5.5943653
50
91.8564414
51
96.4478517
0
ARC
8
back_labelLayer
10
23.0792393
20
72.0085085
40
3.3967588
50
96.3545583
51
102.9953282
0
ARC
8
back_labelLayer
10
22.7367724
20
73.4635519
40
1.9019815
50
102.7995857
51
113.2432976
0
ARC
8
back_labelLayer
10
22.4544361
20
74.138788
40
1.1701505
50
113.5885776
51
121.6805861
0
ARC
8
back_labelLayer
10
22.2582983
20
74.437497
40
0.813006
50
120.9734209
51
172.4179714
0
ARC
8
back_labelLayer
10
22.6416827
20
74.3609178
40
1.2034092
50
171.2121838
51
180.2058217
0
ARC
8
back_labelLayer
10
22.5271026
20
74.3475974
40
1.0888586
50
179.5265497
51
192.778737
0
ARC
8
back_labelLayer
10
22.1587644
20
74.2583105
40
0.7099165
50
192.3264573
51
222.0579721
0
ARC
8
back_labelLayer
10
22.1313728
20
74.2419325
40
0.678636
50
222.5804992
51
229.2545861
0
ARC
8
back_labelLayer
10
22.2239487
20
74.361123
40
0.8293962
50
229.7836511
51
254.272427
0
ARC
8
back_labelLayer
10
22.3472589
20
74.7720435
40
1.2583785
50
253.9396782
51
266.4533457
0
ARC
8
back_labelLayer
10
22.3866166
20
75.2256869
40
1.7136244
50
266.0782188
51
270.0589228
0
LINE
8
back_labelLayer
10
29.5990234
20
77.8356964
11
29.3649414
21
77.1885284
0
LINE
8
back_labelLayer
10
29.5255859
20
73.8195831
11
29.5255859
21
73.1448761
0
ARC
8
back_labelLayer
10
28.229898
20
75.7307339
40
2.8475826
50
256.4243799
51
270.488967
0
ARC
8
back_labelLayer
10
28.0023483
20
74.8426269
40
1.9309181
50
221.7976199
51
256.8020616
0
ARC
8
back_labelLayer
10
28.2227032
20
75.0054389
40
2.2038553
50
196.0166547
51
221.1349196
0
ARC
8
back_labelLayer
10
29.3301869
20
75.3439436
40
3.3618056
50
183.5913843
51
196.3539611
0
ARC
8
back_labelLayer
10
30.5707533
20
75.4532379
40
4.6068887
50
179.9388172
51
183.981535
0
ARC
8
back_labelLayer
10
30.1677245
20
75.4852246
40
4.2039445
50
169.8978579
51
180.3689041
0
ARC
8
back_labelLayer
10
28.7042295
20
75.7559492
40
2.7156701
50
153.0875003
51
170.1051536
0
ARC
8
back_labelLayer
10
28.1489635
20
76.0212694
40
2.1005001
50
138.655037
51
152.6853228
0
ARC
8
back_labelLayer
10
28.0453182
20
76.0967987
40
1.9728299
50
101.4912843
51
138.3133852
0
ARC
8
back_labelLayer
10
28.2832442
20
75.1065788
40
2.9908157
50
89.5892023
51
102.1787839
0
ARC
8
back_labelLayer
10
28.3015402
20
74.65903
40
3.438289
50
77.7702153
51
89.947553
0
ARC
8
back_labelLayer
10
28.2364941
20
74.3001225
40
3.8028507
50
74.6796493
51
77.9579208
0
ARC
8
back_labelLayer
10
28.5880024
20
75.5735574
40
2.4817963
50
70.094548
51
74.7386488
0
ARC
8
back_labelLayer
10
28.9223832
20
76.4899219
40
1.506335
50
63.5033309
51
70.1862063
0
ARC
8
back_labelLayer
10
29.0756428
20
76.8116541
40
1.1500389
50
62.9287512
51
63.1855634
0
ARC
8
back_labelLayer
10
28.113316
20
74.0386226
40
3.3894649
50
68.3294386
51
74.883146
0
ARC
8
back_labelLayer
10
27.9345297
20
73.4046872
40
4.0480957
50
74.7801568
51
77.449803
0
ARC
8
back_labelLayer
10
28.1222272
20
74.2857203
40
3.147339
50
77.2999552
51
81.7345083
0
ARC
8
back_labelLayer
10
28.2591649
20
75.2398915
40
2.1833938
50
81.6910363
51
87.5078614
0
ARC
8
back_labelLayer
10
28.2855814
20
75.7333907
40
1.6892198
50
87.6751829
51
89.9746721
0
ARC
8
back_labelLayer
10
28.2485582
20
75.7329927
40
1.6900398
50
88.7194179
51
112.5667464
0
ARC
8
back_labelLayer
10
28.1284693
20
76.1300391
40
1.277982
50
114.4265775
51
161.6632797
0
ARC
8
back_labelLayer
10
29.3214195
20
75.6631037
40
2.5581592
50
160.1418061
51
175.1368409
0
ARC
8
back_labelLayer
10
30.9634231
20
75.4787208
40
4.2101181
50
174.5310058
51
180.1549226
0
ARC
8
back_labelLayer
10
30.4432008
20
75.4482827
40
3.6899297
50
179.7041305
51
188.0743492
0
ARC
8
back_labelLayer
10
29.1141258
20
75.2538257
40
2.3467245
50
187.9315189
51
200.388551
0
ARC
8
back_labelLayer
10
28.3954946
20
74.9876099
40
1.580369
50
200.4183646
51
216.6392575
0
ARC
8
back_labelLayer
10
28.0942217
20
74.772238
40
1.2101166
50
216.9695458
51
261.3103067
0
ARC
8
back_labelLayer
10
28.2271772
20
75.3920896
40
1.8433276
50
260.1359054
51
270.2692594
0
ARC
8
back_labelLayer
10
28.2210405
20
76.7382147
40
3.1894668
50
270.2658574
51
286.2891434
0
ARC
8
back_labelLayer
10
28.0271376
20
77.4613395
40
3.9379865
50
286.0460758
51
292.3653575
0
ARC
8
back_labelLayer
10
28.5435198
20
75.0768331
40
2.167236
50
282.0343941
51
296.9454663
0
ARC
8
back_labelLayer
10
28.3206325
20
76.081285
40
3.196096
50
272.5980185
51
282.1878783
0
ARC
8
back_labelLayer
10
28.2567145
20
77.0615799
40
4.1783257
50
269.9655093
51
272.8642791
0
LINE
8
back_labelLayer
10
31.4349609
20
75.5499542
11
31.4716797
21
75.5499542
0
LINE
8
back_labelLayer
10
32.0729492
20
76.2843292
11
33.6977539
21
78.0055206
0
LINE
8
back_labelLayer
10
33.6977539
20
78.0055206
11
34.6019531
21
78.0055206
0
LINE
8
back_labelLayer
10
34.6019531
20
78.0055206
11
32.5640625
21
75.8620636
0
LINE
8
back_labelLayer
10
32.5640625
20
75.8620636
11
34.7442383
21
72.9750518
0
LINE
8
back_labelLayer
10
34.7442383
20
72.9750518
11
33.8216797
21
72.9750518
0
LINE
8
back_labelLayer
10
33.8216797
20
72.9750518
11
32.0454102
21
75.3525909
0
LINE
8
back_labelLayer
10
32.0454102
20
75.3525909
11
31.4716797
21
74.8568878
0
LINE
8
back_labelLayer
10
31.4716797
20
74.8568878
11
31.4716797
21
72.9750518
0
LINE
8
back_labelLayer
10
31.4716797
20
72.9750518
11
30.7189453
21
72.9750518
0
LINE
8
back_labelLayer
10
30.7189453
20
72.9750518
11
30.7189453
21
80.1168487
0
LINE
8
back_labelLayer
10
30.7189453
20
80.1168487
11
31.4716797
21
80.1168487
0
LINE
8
back_labelLayer
10
31.4716797
20
80.1168487
11
31.4716797
21
76.3302276
0
ARC
8
back_labelLayer
10
35.1529127
20
72.944231
40
4.5101296
50
142.3233085
51
144.7076213
0
ARC
8
back_labelLayer
10
37.5549511
20
71.0914996
40
7.5436755
50
140.4331277
51
142.3366204
0
ARC
8
back_labelLayer
10
40.6844963
20
68.515341
40
11.5971442
50
139.2798448
51
140.4703751
0
ARC
8
back_labelLayer
10
44.3059819
20
65.4011107
40
16.373501
50
138.3418454
51
139.2876843
0
ARC
8
back_labelLayer
10
26.3940855
20
76.3397373
40
5.0776031
50
358.2739352
51
359.8926928
0
ARC
8
back_labelLayer
10
22.4434071
20
76.4498521
40
9.0298101
50
357.5041448
51
358.330619
0
ARC
8
back_labelLayer
10
16.530646
20
76.7110154
40
14.9483357
50
356.632589
51
357.4909907
0
ARC
8
back_labelLayer
10
6.7037241
20
77.284189
40
24.7919583
50
356.0329216
51
356.6442264
0
ARC
8
back_labelLayer
10
-0.3222724
20
77.7591523
40
31.8339822
50
356.0206188
51
356.0549805
0
LINE
8
right_outsideCutPath
10
53
20
100
11
53
21
53
0
LINE
8
right_outsideCutPath
10
53
20
53
11
97
21
53
0
LINE
8
right_outsideCutPath
10
97
20
53
11
97
21
100
0
LINE
8
right_outsideCutPath
10
97
20
100
11
53
21
100
0
LINE
8
right_labelLayer
10
68.6083984
20
78.9578385
11
68.5095703
21
78.2961197
0
LINE
8
right_labelLayer
10
66.6103516
20
76.740651
11
66.6103516
21
74.2140885
0
LINE
8
right_labelLayer
10
66.6103516
20
74.2140885
11
65.8970703
21
74.2140885
0
LINE
8
right_labelLayer
10
65.8970703
20
74.2140885
11
65.8970703
21
78.9234635
0
LINE
8
right_labelLayer
10
65.8970703
20
78.9234635
11
66.4857422
21
78.9234635
0
LINE
8
right_labelLayer
10
66.4857422
20
78.9234635
11
66.5673828
21
78.0511978
0
LINE
8
right_labelLayer
10
66.5673828
20
78.0511978
11
66.6017578
21
78.0511978
0
ARC
8
right_labelLayer
10
68.0528269
20
75.7348101
40
3.2745991
50
84.9923099
51
90.1280631
0
ARC
8
right_labelLayer
10
68.1314725
20
76.615944
40
2.389964
50
78.4891429
51
85.0266314
0
ARC
8
right_labelLayer
10
67.8262325
20
75.227628
40
3.143659
50
77.4453806
51
81.6359851
0
ARC
8
right_labelLayer
10
67.9632065
20
76.1717574
40
2.1896477
50
81.5884268
51
87.1916993
0
ARC
8
right_labelLayer
10
67.9929475
20
76.6874271
40
1.6731461
50
87.3437561
51
89.9658315
0
ARC
8
right_labelLayer
10
67.9860404
20
77.1246927
40
1.2359055
50
89.6335314
51
137.0880684
0
ARC
8
right_labelLayer
10
68.289388
20
76.7835804
40
1.6908859
50
135.6210326
51
138.8377665
0
ARC
8
right_labelLayer
10
68.2449083
20
76.8269912
40
1.6288304
50
138.9575597
51
174.5422339
0
ARC
8
right_labelLayer
10
68.7754084
20
76.7439866
40
2.1650593
50
173.690825
51
180.0882731
0
ARC
8
right_labelLayer
10
68.7003753
20
76.8688468
40
2.4087651
50
139.4138983
51
150.603297
0
ARC
8
right_labelLayer
10
68.268484
20
77.2389361
40
1.839998
50
124.2321352
51
139.4161538
0
ARC
8
right_labelLayer
10
68.0375578
20
77.5875187
40
1.4219044
50
89.6796508
51
124.4405575
0
LINE
8
right_labelLayer
10
70.2025391
20
78.9234635
11
70.2025391
21
74.2140885
0
LINE
8
right_labelLayer
10
70.2025391
20
74.2140885
11
69.4892578
21
74.2140885
0
LINE
8
right_labelLayer
10
69.4892578
20
74.2140885
11
69.4892578
21
78.9234635
0
LINE
8
right_labelLayer
10
69.4892578
20
78.9234635
11
70.2025391
21
78.9234635
0
ARC
8
right_labelLayer
10
70.2194701
20
80.2045265
40
0.7903836
50
170.8450636
51
180.3545642
0
ARC
8
right_labelLayer
10
69.9235935
20
80.2539994
40
0.4904079
50
155.9678132
51
171.0515519
0
ARC
8
right_labelLayer
10
69.7802759
20
80.3175826
40
0.3336195
50
133.7879529
51
155.9172371
0
ARC
8
right_labelLayer
10
69.8331898
20
80.2590843
40
0.412472
50
92.6446022
51
133.4710421
0
ARC
8
right_labelLayer
10
69.8499
20
80.1279466
40
0.5443451
50
89.9689203
51
93.7647736
0
ARC
8
right_labelLayer
10
69.8567075
20
80.2520854
40
0.4202566
50
46.3708297
51
90.8878769
0
ARC
8
right_labelLayer
10
69.8985346
20
80.2952659
40
0.360142
50
17.7251423
51
46.4474022
0
ARC
8
right_labelLayer
10
69.7034952
20
80.2281011
40
0.5663895
50
4.9427067
51
18.1901136
0
ARC
8
right_labelLayer
10
69.4554117
20
80.2012782
40
0.8158791
50
359.8846319
51
5.3183098
0
ARC
8
right_labelLayer
10
69.5333061
20
80.1946239
40
0.738
50
349.8345273
51
0.3890759
0
ARC
8
right_labelLayer
10
69.801983
20
80.1445034
40
0.4646987
50
332.6322073
51
350.070579
0
ARC
8
right_labelLayer
10
69.9065562
20
80.0928656
40
0.3480991
50
313.6153461
51
332.2677615
0
ARC
8
right_labelLayer
10
69.8561589
20
80.1387544
40
0.4161149
50
269.1788317
51
314.2807264
0
ARC
8
right_labelLayer
10
69.8454682
20
80.1757483
40
0.4530908
50
250.5000492
51
270.5977741
0
ARC
8
right_labelLayer
10
69.8317552
20
80.1244721
40
0.4002001
50
225.1300484
51
249.9001832
0
ARC
8
right_labelLayer
10
69.8102878
20
80.1007581
40
0.3682517
50
197.7933649
51
224.8941759
0
ARC
8
right_labelLayer
10
70.0112113
20
80.1696138
40
0.5806202
50
184.9924777
51
198.2041454
0
ARC
8
right_labelLayer
10
70.2712467
20
80.1978816
40
0.8421472
50
179.8806848
51
185.3687849
0
LINE
8
right_labelLayer
10
73.9408203
20
78.9234635
11
75.5693359
21
78.9234635
0
LINE
8
right_labelLayer
10
75.5693359
20
78.9234635
11
75.5693359
21
78.4722916
0
LINE
8
right_labelLayer
10
75.5693359
20
78.4722916
11
74.6970703
21
78.3691666
0
LINE
8
right_labelLayer
10
73.0900391
20
74.9617447
11
73.9236328
21
74.9617447
0
LINE
8
right_labelLayer
10
73.6958984
20
74.3215103
11
72.8408203
21
74.3215103
0
ARC
8
right_labelLayer
10
73.7880978
20
77.6498177
40
1.1591781
50
29.4584263
51
38.3576285
0
ARC
8
right_labelLayer
10
73.3144342
20
77.379422
40
1.7045833
50
23.1845147
51
29.5422255
0
ARC
8
right_labelLayer
10
72.8623578
20
77.1789472
40
2.1990856
50
21.2506439
51
23.3487955
0
ARC
8
right_labelLayer
10
73.6306875
20
77.4845154
40
1.3722614
50
6.8505204
51
20.9871505
0
ARC
8
right_labelLayer
10
73.2441837
20
77.4321148
40
1.762266
50
359.8711257
51
7.0431416
0
ARC
8
right_labelLayer
10
73.3713743
20
77.4111482
40
1.6351594
50
342.5649493
51
0.5957849
0
ARC
8
right_labelLayer
10
73.6729428
20
77.3278736
40
1.3225397
50
310.6097867
51
342.0923597
0
ARC
8
right_labelLayer
10
73.5038325
20
77.5245796
40
1.5819457
50
284.9315748
51
310.622283
0
ARC
8
right_labelLayer
10
73.2922094
20
78.2661347
40
2.3530277
50
272.5334846
51
285.2579734
0
ARC
8
right_labelLayer
10
73.2377985
20
79.0093718
40
3.0980181
50
269.9691942
51
272.9311941
0
ARC
8
right_labelLayer
10
73.2310459
20
78.2037324
40
2.292384
50
263.4837088
51
270.1271417
0
ARC
8
right_labelLayer
10
73.1937
20
77.8490083
40
1.9357157
50
259.4962813
51
263.3904267
0
ARC
8
right_labelLayer
10
73.4248079
20
74.8187932
40
1.269262
50
117.3935696
51
128.4095379
0
ARC
8
right_labelLayer
10
73.0980447
20
75.2241655
40
0.7486173
50
128.0881331
51
147.1400633
0
ARC
8
right_labelLayer
10
72.9220098
20
75.3422977
40
0.5366638
50
147.5368714
51
180.2592239
0
ARC
8
right_labelLayer
10
72.7550126
20
75.3353015
40
0.3696892
50
179.2919807
51
198.3579462
0
ARC
8
right_labelLayer
10
72.6857916
20
75.3171101
40
0.2982961
50
199.229193
51
239.5691535
0
ARC
8
right_labelLayer
10
72.7431724
20
75.396383
40
0.3958217
50
238.2192856
51
239.8451552
0
ARC
8
right_labelLayer
10
72.788969
20
75.4905987
40
0.5003523
50
240.7302693
51
254.502604
0
ARC
8
right_labelLayer
10
72.9255236
20
75.9611623
40
0.9903114
50
254.1636937
51
262.2124198
0
ARC
8
right_labelLayer
10
73.0336957
20
76.7166802
40
1.7535253
50
262.0555422
51
267.2083376
0
ARC
8
right_labelLayer
10
73.0859512
20
77.6750997
40
2.7133581
50
267.0918994
51
270.0863208
0
ARC
8
right_labelLayer
10
73.9392249
20
72.0420192
40
2.9197672
50
81.5744412
51
90.3059713
0
ARC
8
right_labelLayer
10
74.0993787
20
73.0865205
40
1.8630804
50
68.3671807
51
81.7399072
0
ARC
8
right_labelLayer
10
74.3085576
20
73.6211102
40
1.2890316
50
52.1879637
51
68.2500654
0
ARC
8
right_labelLayer
10
74.4549255
20
73.8183319
40
1.0435005
50
8.6201447
51
51.8982284
0
ARC
8
right_labelLayer
10
73.9419343
20
73.7097875
40
1.5672613
50
359.7431011
51
9.7326585
0
ARC
8
right_labelLayer
10
73.9649137
20
73.6833489
40
1.544388
50
340.52687
51
0.7201723
0
ARC
8
right_labelLayer
10
74.1918185
20
73.6268529
40
1.3118197
50
302.9903951
51
339.5494379
0
ARC
8
right_labelLayer
10
73.9526659
20
73.9309766
40
1.697486
50
303.1874598
51
304.1717497
0
ARC
8
right_labelLayer
10
73.7316333
20
74.3138884
40
2.1390693
50
286.2542383
51
302.5279998
0
ARC
8
right_labelLayer
10
73.327647
20
75.6464329
40
3.5314579
50
276.4940097
51
286.4953243
0
ARC
8
right_labelLayer
10
73.0755902
20
77.7534877
40
5.6535137
50
269.7545098
51
276.616972
0
ARC
8
right_labelLayer
10
73.0325439
20
76.0963271
40
3.9963455
50
262.5634878
51
270.2698706
0
ARC
8
right_labelLayer
10
72.8368101
20
74.6455457
40
2.5324413
50
251.2102
51
262.7063955
0
ARC
8
right_labelLayer
10
72.5546896
20
73.8174827
40
1.6576384
50
235.9667733
51
251.2229437
0
ARC
8
right_labelLayer
10
72.2556748
20
73.390908
40
1.1368158
50
208.9036249
51
236.4231448
0
ARC
8
right_labelLayer
10
72.283129
20
73.3794017
40
1.1555244
50
182.2080264
51
207.7461201
0
ARC
8
right_labelLayer
10
72.6326182
20
73.4143031
40
1.506251
50
179.9784456
51
183.0224766
0
ARC
8
right_labelLayer
10
72.2168409
20
73.4340042
40
1.0906416
50
138.3916159
51
181.0052644
0
ARC
8
right_labelLayer
10
72.3320162
20
73.3304951
40
1.2454923
50
113.8121796
51
138.3495993
0
ARC
8
right_labelLayer
10
72.5504853
20
72.8587272
40
1.7653301
50
102.2871014
51
114.1172752
0
ARC
8
right_labelLayer
10
72.4818354
20
75.2572398
40
0.7402917
50
216.5861105
51
245.4968748
0
ARC
8
right_labelLayer
10
72.587493
20
75.3469177
40
0.878628
50
215.4648031
51
217.175159
0
ARC
8
right_labelLayer
10
72.4112936
20
75.2196525
40
0.6612805
50
182.1767575
51
215.3415433
0
ARC
8
right_labelLayer
10
72.5683871
20
75.2365076
40
0.8189729
50
179.9834115
51
182.9376794
0
ARC
8
right_labelLayer
10
72.565064
20
75.2436397
40
0.815679
50
161.7226206
51
180.4843316
0
ARC
8
right_labelLayer
10
72.4753773
20
75.2681125
40
0.7228585
50
144.4962989
51
161.3350864
0
ARC
8
right_labelLayer
10
72.7144453
20
75.089938
40
1.0209732
50
132.7258774
51
144.1479188
0
ARC
8
right_labelLayer
10
73.0976112
20
74.6807609
40
1.5815378
50
125.2213131
51
132.8654871
0
ARC
8
right_labelLayer
10
73.4827731
20
74.1459186
40
2.2406121
50
121.2351961
51
125.3795371
0
ARC
8
right_labelLayer
10
72.7999301
20
77.2167907
40
1.2504409
50
215.1640998
51
247.4747697
0
ARC
8
right_labelLayer
10
73.0333223
20
77.4051505
40
1.5498442
50
212.471383
51
215.8875985
0
ARC
8
right_labelLayer
10
72.9719641
20
77.3612519
40
1.4745162
50
183.0160769
51
212.312316
0
ARC
8
right_labelLayer
10
73.2955074
20
77.3973173
40
1.7996092
50
179.9759458
51
183.6207478
0
ARC
8
right_labelLayer
10
73.5566218
20
77.4154778
40
2.0607969
50
166.8195963
51
180.48391
0
ARC
8
right_labelLayer
10
72.8729692
20
77.5880844
40
1.3558511
50
132.3287754
51
167.334082
0
ARC
8
right_labelLayer
10
72.9644316
20
77.4566152
40
1.514779
50
106.2188975
51
131.5377716
0
ARC
8
right_labelLayer
10
73.1958499
20
76.7072959
40
2.2989498
50
93.6329784
51
106.540837
0
ARC
8
right_labelLayer
10
73.2713974
20
75.8591744
40
3.1502285
50
89.9380285
51
94.0268292
0
ARC
8
right_labelLayer
10
73.2836304
20
76.2753566
40
2.7340586
50
82.5852535
51
90.1849543
0
ARC
8
right_labelLayer
10
73.367173
20
76.9217492
40
2.0822899
50
74.0088619
51
82.5694749
0
ARC
8
right_labelLayer
10
72.5301693
20
73.4137202
40
0.7163684
50
179.2207
51
200.9356258
0
ARC
8
right_labelLayer
10
72.4449821
20
73.393994
40
0.6298711
50
202.0286326
51
236.1457695
0
ARC
8
right_labelLayer
10
72.5733827
20
73.5570319
40
0.836946
50
235.0636666
51
238.5042745
0
ARC
8
right_labelLayer
10
72.7226396
20
73.8236246
40
1.1423044
50
239.1066397
51
254.4862623
0
ARC
8
right_labelLayer
10
72.921649
20
74.5098007
40
1.8567277
50
254.2323709
51
263.4937268
0
ARC
8
right_labelLayer
10
73.0466564
20
75.5685908
40
2.9228664
50
263.4108325
51
270.1457753
0
ARC
8
right_labelLayer
10
73.0599577
20
76.228624
40
3.582895
50
269.906214
51
270.0000516
0
ARC
8
right_labelLayer
10
73.0770553
20
77.4407109
40
4.7950123
50
269.7957378
51
275.3991409
0
ARC
8
right_labelLayer
10
73.2565204
20
75.598369
40
2.9439626
50
275.2956672
51
283.3515907
0
ARC
8
right_labelLayer
10
73.5489061
20
74.3940915
40
1.7047275
50
283.1370257
51
295.8573496
0
ARC
8
right_labelLayer
10
73.7655487
20
73.9211313
40
1.1846881
50
296.404839
51
301.8009493
0
ARC
8
right_labelLayer
10
73.8504894
20
73.8040532
40
1.0404771
50
301.2231197
51
318.6238329
0
ARC
8
right_labelLayer
10
74.0420729
20
73.6270807
40
0.7797613
50
319.0765444
51
1.1407163
0
ARC
8
right_labelLayer
10
73.8566695
20
73.6502501
40
0.9650405
50
359.5460438
51
10.9905299
0
ARC
8
right_labelLayer
10
74.2294264
20
73.7260694
40
0.5846754
50
10.6608909
51
30.9362191
0
ARC
8
right_labelLayer
10
74.3476182
20
73.7916625
40
0.4495997
50
31.5095149
51
58.0778459
0
ARC
8
right_labelLayer
10
74.2368394
20
73.5933084
40
0.6766196
50
58.9973009
51
73.8585178
0
ARC
8
right_labelLayer
10
74.0129454
20
72.8603463
40
1.4429759
50
73.4099565
51
81.5907312
0
ARC
8
right_labelLayer
10
73.8232379
20
71.6326791
40
2.6851997
50
81.4172552
51
86.5757123
0
ARC
8
right_labelLayer
10
73.7069817
20
69.7830225
40
4.5385014
50
86.5053993
51
90.1399189
0
ARC
8
right_labelLayer
10
72.8306178
20
72.6819226
40
1.6396195
50
89.6434767
51
100.0209138
0
ARC
8
right_labelLayer
10
72.7275656
20
73.2425195
40
1.0696501
50
99.8102998
51
116.8229904
0
ARC
8
right_labelLayer
10
72.6271843
20
73.4542117
40
0.8354606
50
117.2305156
51
130.5023163
0
ARC
8
right_labelLayer
10
72.5756403
20
73.5204585
40
0.751621
50
130.7944948
51
169.0413054
0
ARC
8
right_labelLayer
10
72.9551885
20
73.4310736
40
1.1413468
50
168.2580428
51
180.3820329
0
ARC
8
right_labelLayer
10
73.5928477
20
77.4046111
40
1.3923025
50
179.5617603
51
191.6529437
0
ARC
8
right_labelLayer
10
73.1087636
20
77.3000215
40
0.8970827
50
191.3554941
51
213.3660097
0
ARC
8
right_labelLayer
10
72.9925092
20
77.2328965
40
0.7631128
50
213.9574518
51
227.7971899
0
ARC
8
right_labelLayer
10
73.0936539
20
77.3555692
40
0.9219604
50
228.2621131
51
254.7340968
0
ARC
8
right_labelLayer
10
73.222869
20
77.7985212
40
1.383328
50
254.401634
51
267.4349027
0
ARC
8
right_labelLayer
10
73.256578
20
78.2506197
40
1.8365313
50
267.015542
51
270.0324195
0
ARC
8
right_labelLayer
10
73.2786161
20
77.9678677
40
1.5539211
50
269.2257094
51
284.377326
0
ARC
8
right_labelLayer
10
73.4904137
20
77.2299633
40
0.786842
50
282.7796563
51
346.4828692
0
ARC
8
right_labelLayer
10
72.8572011
20
77.4093265
40
1.4446795
50
345.4361763
51
0.7465954
0
ARC
8
right_labelLayer
10
72.7681882
20
77.4500835
40
1.5337264
50
359.1806328
51
15.0431784
0
ARC
8
right_labelLayer
10
73.4631468
20
77.6528105
40
0.810113
50
13.9535615
51
77.6673931
0
ARC
8
right_labelLayer
10
73.2637559
20
76.9382814
40
1.5513145
50
76.10948
51
90.702841
0
ARC
8
right_labelLayer
10
73.2339106
20
76.9928546
40
1.4966636
50
89.5859369
51
101.3334252
0
ARC
8
right_labelLayer
10
73.1269546
20
77.502988
40
0.9754699
50
101.0620666
51
121.9738951
0
ARC
8
right_labelLayer
10
73.0517879
20
77.6382091
40
0.8209974
50
122.5211035
51
134.9966432
0
ARC
8
right_labelLayer
10
73.0827355
20
77.6196687
40
0.8560352
50
135.5839971
51
163.0015817
0
ARC
8
right_labelLayer
10
73.5347806
20
77.4715038
40
1.3316812
50
162.5911734
51
175.7343457
0
ARC
8
right_labelLayer
10
74.0769765
20
77.4180898
40
1.8763927
50
175.339311
51
180.0863989
0
LINE
8
right_labelLayer
10
80.4720703
20
74.2140885
11
79.7587891
21
74.2140885
0
LINE
8
right_labelLayer
10
79.7587891
20
74.2140885
11
79.7587891
21
77.2605728
0
LINE
8
right_labelLayer
10
77.2494141
20
76.6761978
11
77.2494141
21
74.2140885
0
LINE
8
right_labelLayer
10
77.2494141
20
74.2140885
11
76.5361328
21
74.2140885
0
LINE
8
right_labelLayer
10
76.5361328
20
74.2140885
11
76.5361328
21
80.900026
0
LINE
8
right_labelLayer
10
76.5361328
20
80.900026
11
77.2494141
21
80.900026
0
LINE
8
right_labelLayer
10
77.2494141
20
80.900026
11
77.2494141
21
78.8761978
0
LINE
8
right_labelLayer
10
77.2150391
20
78.2703385
11
77.2580078
21
78.2703385
0
LINE
8
right_labelLayer
10
80.4720703
20
77.2863541
11
80.4720703
21
74.2140885
0
ARC
8
right_labelLayer
10
77.7425759
20
77.2721371
40
2.0162463
50
359.6713768
51
8.6877805
0
ARC
8
right_labelLayer
10
78.4898311
20
77.3906478
40
1.2596713
50
8.493193
51
22.6579253
0
ARC
8
right_labelLayer
10
78.8695125
20
77.5484299
40
0.8485113
50
22.7024535
51
42.3419383
0
ARC
8
right_labelLayer
10
78.9121911
20
77.5676285
40
0.8041664
50
43.3790834
51
71.5386111
0
ARC
8
right_labelLayer
10
78.7526023
20
77.1216986
40
1.2777242
50
71.0827715
51
84.3691637
0
ARC
8
right_labelLayer
10
78.6809622
20
76.5125814
40
1.8909667
50
84.0198438
51
90.1510628
0
ARC
8
right_labelLayer
10
78.6606043
20
76.2450949
40
2.1585015
50
89.5919509
51
100.3594758
0
ARC
8
right_labelLayer
10
78.507763
20
77.0483025
40
1.3409154
50
100.1067656
51
118.0847005
0
ARC
8
right_labelLayer
10
78.3523139
20
77.3533352
40
0.9986385
50
118.4551556
51
139.6705846
0
ARC
8
right_labelLayer
10
78.5083791
20
77.2466636
40
1.1868117
50
140.6208567
51
160.5048624
0
ARC
8
right_labelLayer
10
79.3310084
20
76.94213
40
2.0639487
50
160.1567158
51
171.531251
0
ARC
8
right_labelLayer
10
80.6620507
20
76.7312443
40
3.411558
50
171.3202464
51
178.3406402
0
ARC
8
right_labelLayer
10
81.8532995
20
76.6780367
40
4.6038858
50
178.1080412
51
180.0228849
0
ARC
8
right_labelLayer
10
70.8330073
20
78.8685443
40
6.4164114
50
357.8674363
51
0.0683426
0
ARC
8
right_labelLayer
10
73.012613
20
78.7853939
40
4.2352214
50
354.9828691
51
357.8943055
0
ARC
8
right_labelLayer
10
74.4523488
20
78.660024
40
2.790038
50
351.9712291
51
354.9619102
0
ARC
8
right_labelLayer
10
78.466185
20
77.5145817
40
1.4250827
50
119.8315847
51
147.9725903
0
ARC
8
right_labelLayer
10
78.6387449
20
77.2494977
40
1.7409723
50
116.6657865
51
120.4183056
0
ARC
8
right_labelLayer
10
78.6709695
20
77.1648538
40
1.8310984
50
96.6652701
51
116.3782326
0
ARC
8
right_labelLayer
10
78.7403941
20
76.6858402
40
2.314971
50
89.8927707
51
96.9958565
0
ARC
8
right_labelLayer
10
78.7625933
20
76.1069831
40
2.8938793
50
80.6863135
51
90.3537441
0
ARC
8
right_labelLayer
10
78.9427847
20
77.1668425
40
1.8188405
50
65.6022881
51
80.8844187
0
ARC
8
right_labelLayer
10
79.159159
20
77.654169
40
1.2856618
50
46.7401081
51
65.4130285
0
ARC
8
right_labelLayer
10
79.1738665
20
77.7006058
40
1.2419445
50
19.2204425
51
45.7660446
0
ARC
8
right_labelLayer
10
78.4577532
20
77.4351378
40
2.0055896
50
6.4733701
51
19.6467805
0
ARC
8
right_labelLayer
10
77.387702
20
77.2974155
40
3.0843881
50
359.794522
51
6.7743989
0
LINE
8
right_labelLayer
10
84.1029297
20
74.8027603
11
84.1029297
21
74.2570572
0
LINE
8
right_labelLayer
10
81.9888672
20
75.5676041
11
81.9888672
21
78.3691666
0
LINE
8
right_labelLayer
10
81.9888672
20
78.3691666
11
81.3142578
21
78.3691666
0
LINE
8
right_labelLayer
10
81.3142578
20
78.3691666
11
81.3142578
21
78.7129166
0
LINE
8
right_labelLayer
10
81.3142578
20
78.7129166
11
81.9888672
21
79.009401
0
LINE
8
right_labelLayer
10
81.9888672
20
79.009401
11
82.2896484
21
80.0148697
0
LINE
8
right_labelLayer
10
82.2896484
20
80.0148697
11
82.7021484
21
80.0148697
0
LINE
8
right_labelLayer
10
82.7021484
20
80.0148697
11
82.7021484
21
78.9234635
0
LINE
8
right_labelLayer
10
82.7021484
20
78.9234635
11
84.0685547
21
78.9234635
0
LINE
8
right_labelLayer
10
84.0685547
20
78.9234635
11
84.0685547
21
78.3691666
0
LINE
8
right_labelLayer
10
84.0685547
20
78.3691666
11
82.7021484
21
78.3691666
0
LINE
8
right_labelLayer
10
82.7021484
20
78.3691666
11
82.7021484
21
75.5976822
0
ARC
8
right_labelLayer
10
83.4632913
20
77.0593305
40
2.3425128
50
269.8803239
51
278.3028034
0
ARC
8
right_labelLayer
10
83.4858706
20
76.8752545
40
2.1571096
50
278.4153931
51
279.0084967
0
ARC
8
right_labelLayer
10
83.2228471
20
78.555685
40
3.8579981
50
278.958831
51
280.5105033
0
ARC
8
right_labelLayer
10
83.4731507
20
77.2126396
40
2.4918279
50
280.4849518
51
282.6266209
0
ARC
8
right_labelLayer
10
83.6929555
20
76.2360861
40
1.4908438
50
282.5875141
51
285.5795836
0
ARC
8
right_labelLayer
10
83.802168
20
75.8342989
40
1.0744904
50
285.7241341
51
286.2548965
0
ARC
8
right_labelLayer
10
83.8030488
20
74.8913227
40
0.7015849
50
287.9887761
51
295.3047991
0
ARC
8
right_labelLayer
10
83.6338233
20
75.4033108
40
1.2408107
50
283.306971
51
288.1197149
0
ARC
8
right_labelLayer
10
83.4551004
20
76.1488043
40
2.0074261
50
280.0068636
51
283.3736283
0
ARC
8
right_labelLayer
10
83.3355944
20
76.797292
40
2.6668191
50
279.1860599
51
280.1143463
0
ARC
8
right_labelLayer
10
83.2620514
20
77.2156045
40
3.0915129
50
275.5259727
51
279.2939228
0
ARC
8
right_labelLayer
10
83.3447788
20
76.3514844
40
2.2234425
50
270.8932431
51
275.5483731
0
ARC
8
right_labelLayer
10
83.3551882
20
75.9548837
40
1.8267327
50
270.0026724
51
270.7607113
0
ARC
8
right_labelLayer
10
83.3264903
20
75.9909135
40
1.8629849
50
253.7847834
51
270.8852544
0
ARC
8
right_labelLayer
10
83.1057758
20
75.2381949
40
1.0785775
50
190.3817581
51
253.8772476
0
ARC
8
right_labelLayer
10
84.2307613
20
75.5423697
40
2.2420361
50
179.3551152
51
192.8477328
0
ARC
8
right_labelLayer
10
84.1384312
20
75.5887002
40
1.4363109
50
179.6416964
51
189.7506366
0
ARC
8
right_labelLayer
10
83.6313814
20
75.4982601
40
0.9212748
50
189.5479292
51
205.7874297
0
ARC
8
right_labelLayer
10
83.42301
20
75.4021722
40
0.6918651
50
206.1294189
51
221.4084283
0
ARC
8
right_labelLayer
10
83.3996477
20
75.3844448
40
0.6626214
50
221.5949026
51
262.3505059
0
ARC
8
right_labelLayer
10
83.4552163
20
75.6702133
40
0.9533958
50
261.3267224
51
270.1912333
0
LINE
8
bottom_outsideCutPath
10
100
20
53
11
100
21
3
0
LINE
8
bottom_outsideCutPath
10
100
20
3
11
150
21
3
0
LINE
8
bottom_outsideCutPath
10
150
20
3
11
150
21
53
0
LINE
8
bottom_outsideCutPath
10
150
20
53
11
100
21
53
0
LINE
8
bottom_labelLayer
10
109.3603279
20
24.9386029
11
109.3017342
21
24.9386029
0
LINE
8
bottom_labelLayer
10
109.3017342
20
24.9386029
11
109.1308357
21
24.2501263
0
LINE
8
bottom_labelLayer
10
109.1308357
20
24.2501263
11
108.549781
21
24.2501263
0
LINE
8
bottom_labelLayer
10
108.549781
20
24.2501263
11
108.549781
21
31.8477826
0
LINE
8
bottom_labelLayer
10
108.549781
20
31.8477826
11
109.3603279
21
31.8477826
0
LINE
8
bottom_labelLayer
10
109.3603279
20
31.8477826
11
109.3603279
21
30.0020795
0
LINE
8
bottom_labelLayer
10
109.3212654
20
28.8887982
11
109.3603279
21
28.8887982
0
ARC
8
bottom_labelLayer
10
111.0643307
20
27.2123852
40
2.4773136
50
74.2393369
51
90.5623769
0
ARC
8
bottom_labelLayer
10
111.2281401
20
27.8133256
40
1.8544803
50
38.5631099
51
74.0670539
0
ARC
8
bottom_labelLayer
10
110.8065855
20
27.4855419
40
2.3884445
50
16.4709351
51
38.4075227
0
ARC
8
bottom_labelLayer
10
109.5921677
20
27.1047352
40
3.6610562
50
5.1338261
51
16.7973539
0
ARC
8
bottom_labelLayer
10
108.0590761
20
26.941877
40
5.2026308
50
359.8779055
51
5.4093721
0
ARC
8
bottom_labelLayer
10
108.5093621
20
26.9027523
40
4.7524157
50
350.6562637
51
0.3380338
0
ARC
8
bottom_labelLayer
10
110.1661282
20
26.6209531
40
3.0718929
50
335.8305818
51
350.8254823
0
ARC
8
bottom_labelLayer
10
110.8949063
20
26.3064015
40
2.2782403
50
321.3161731
51
335.5436156
0
ARC
8
bottom_labelLayer
10
111.1735296
20
26.0793676
40
1.9188461
50
274.0640057
51
321.4080958
0
ARC
8
bottom_labelLayer
10
111.0437322
20
26.9015357
40
2.749068
50
269.9225351
51
275.5481821
0
ARC
8
bottom_labelLayer
10
111.0263459
20
26.6109923
40
2.4585602
50
255.7755328
51
270.3185644
0
ARC
8
bottom_labelLayer
10
110.9561861
20
26.2992805
40
2.1391827
50
245.9801635
51
255.5455786
0
ARC
8
bottom_labelLayer
10
110.8202922
20
25.9832573
40
1.7952153
50
215.5850173
51
245.8361589
0
ARC
8
bottom_labelLayer
10
92.4610372
20
29.9877929
40
16.8992968
50
358.1123237
51
0.0484375
0
ARC
8
bottom_labelLayer
10
97.1640438
20
29.8299091
40
12.193642
50
355.7238931
51
358.1258568
0
ARC
8
bottom_labelLayer
10
99.2773835
20
29.6843776
40
10.0753416
50
355.4710374
51
355.6530914
0
ARC
8
bottom_labelLayer
10
110.8719624
20
27.8346952
40
1.8428706
50
95.1835114
51
145.1109093
0
ARC
8
bottom_labelLayer
10
111.0339438
20
26.9212807
40
2.7683056
50
89.8743348
51
96.8145689
0
ARC
8
bottom_labelLayer
10
110.9058578
20
26.7332364
40
2.2776953
50
89.5731104
51
100.7324481
0
ARC
8
bottom_labelLayer
10
110.7372447
20
27.5851223
40
1.409329
50
100.4469364
51
119.6700776
0
ARC
8
bottom_labelLayer
10
110.5808907
20
27.8774454
40
1.0779725
50
120.1403067
51
142.4248671
0
ARC
8
bottom_labelLayer
10
110.8395709
20
27.7063216
40
1.3875184
50
143.3382683
51
161.2559699
0
ARC
8
bottom_labelLayer
10
111.921323
20
27.3222654
40
2.5353622
50
160.8926676
51
171.2333994
0
ARC
8
bottom_labelLayer
10
113.7271813
20
27.0309405
40
4.3645426
50
171.0667954
51
177.8456541
0
ARC
8
bottom_labelLayer
10
115.6053657
20
26.9354219
40
6.2450395
50
177.6176903
51
180.0424917
0
ARC
8
bottom_labelLayer
10
114.7195661
20
26.9098652
40
5.359279
50
179.7762894
51
185.707537
0
ARC
8
bottom_labelLayer
10
112.6065952
20
26.6921529
40
3.2351383
50
185.5924778
51
194.2050433
0
ARC
8
bottom_labelLayer
10
111.25304
20
26.3408595
40
1.8367838
50
193.9430285
51
208.0218386
0
ARC
8
bottom_labelLayer
10
110.7053792
20
26.0622484
40
1.222485
50
208.5536292
51
217.5606204
0
ARC
8
bottom_labelLayer
10
110.6607729
20
26.0436972
40
1.1758828
50
218.1690397
51
253.8047404
0
ARC
8
bottom_labelLayer
10
110.878878
20
26.716136
40
1.8825966
50
253.1382412
51
266.848293
0
ARC
8
bottom_labelLayer
10
110.94004
20
27.4373966
40
2.6062167
50
266.3775019
51
270.0509848
0
ARC
8
bottom_labelLayer
10
110.9596494
20
26.4469032
40
1.6158147
50
269.3868884
51
285.8630892
0
ARC
8
bottom_labelLayer
10
111.0796951
20
26.0130456
40
1.1656704
50
286.0162669
51
326.8497557
0
ARC
8
bottom_labelLayer
10
110.5002995
20
26.3968756
40
1.860661
50
326.7104772
51
343.6661994
0
ARC
8
bottom_labelLayer
10
109.4157066
20
26.7282939
40
2.9947132
50
343.417116
51
353.6369418
0
ARC
8
bottom_labelLayer
10
107.7775401
20
26.9226772
40
4.6443457
50
353.4934558
51
0.2205656
0
ARC
8
bottom_labelLayer
10
107.6330679
20
26.9599381
40
4.7888227
50
359.7681031
51
6.3094901
0
ARC
8
bottom_labelLayer
10
109.4369468
20
27.1669421
40
2.9731302
50
6.1648447
51
16.039627
0
ARC
8
bottom_labelLayer
10
110.5989467
20
27.5093825
40
1.7617672
50
15.7779417
51
32.0151137
0
ARC
8
bottom_labelLayer
10
110.9613862
20
27.7169468
40
1.3445099
50
32.7033248
51
35.52437
0
ARC
8
bottom_labelLayer
10
111.0938284
20
27.811084
40
1.1820211
50
35.5408567
51
79.8010998
0
ARC
8
bottom_labelLayer
10
110.9350949
20
27.1362731
40
1.8746357
50
78.6781387
51
90.374928
0
ARC
8
bottom_labelLayer
10
115.1101486
20
26.9025649
40
4.1867979
50
349.1761703
51
0.3862653
0
ARC
8
bottom_labelLayer
10
116.5197411
20
26.6215577
40
2.7495362
50
330.2507007
51
349.4116588
0
ARC
8
bottom_labelLayer
10
116.9535431
20
26.3960832
40
2.2611094
50
318.1439898
51
329.7566466
0
ARC
8
bottom_labelLayer
10
117.0318377
20
26.3333381
40
2.1609332
50
278.8959126
51
317.9979246
0
ARC
8
bottom_labelLayer
10
116.8301011
20
27.2998659
40
3.1474257
50
269.7502681
51
279.8033505
0
ARC
8
bottom_labelLayer
10
116.7973816
20
26.7552913
40
2.6028906
50
253.5436891
51
270.4182599
0
ARC
8
bottom_labelLayer
10
116.7107347
20
26.420124
40
2.2569384
50
238.8115406
51
253.2428565
0
ARC
8
bottom_labelLayer
10
116.682774
20
26.3638951
40
2.1943629
50
207.7947077
51
238.6757957
0
ARC
8
bottom_labelLayer
10
117.0840876
20
26.6096715
40
2.6641534
50
205.6559998
51
208.4460407
0
ARC
8
bottom_labelLayer
10
117.3930964
20
26.7384213
40
2.998494
50
188.9102447
51
205.3171267
0
ARC
8
bottom_labelLayer
10
118.4346683
20
26.9148308
40
4.0548407
50
179.7744861
51
189.0932968
0
ARC
8
bottom_labelLayer
10
118.5883136
20
26.9592956
40
4.2085509
50
169.244298
51
180.388077
0
ARC
8
bottom_labelLayer
10
117.1591235
20
27.2417944
40
2.7517699
50
150.7111548
51
169.4695403
0
ARC
8
bottom_labelLayer
10
116.702877
20
27.4760938
40
2.2393051
50
138.1759271
51
150.2287439
0
ARC
8
bottom_labelLayer
10
116.6269874
20
27.5343308
40
2.1439295
50
99.1759269
51
137.9832757
0
ARC
8
bottom_labelLayer
10
116.8358732
20
26.5512837
40
3.1480957
50
89.7326552
51
100.075957
0
ARC
8
bottom_labelLayer
10
116.8776202
20
26.9758311
40
2.7236484
50
73.5222921
51
90.5692101
0
ARC
8
bottom_labelLayer
10
117.037346
20
27.5561614
40
2.121878
50
41.1445648
51
73.213376
0
ARC
8
bottom_labelLayer
10
116.7324419
20
27.2941012
40
2.5239143
50
13.5014371
51
41.0703286
0
ARC
8
bottom_labelLayer
10
115.5544642
20
26.9858388
40
3.7413892
50
1.1277007
51
13.8800198
0
ARC
8
bottom_labelLayer
10
114.5403544
20
26.9314702
40
4.756497
50
359.9918119
51
1.5420744
0
ARC
8
bottom_labelLayer
10
119.3242433
20
26.909726
40
4.1045945
50
179.7059623
51
187.9160759
0
ARC
8
bottom_labelLayer
10
117.8187962
20
26.6934692
40
2.5837186
50
187.7639004
51
200.0977067
0
ARC
8
bottom_labelLayer
10
116.9894616
20
26.3895981
40
1.700467
50
200.0845636
51
216.9131841
0
ARC
8
bottom_labelLayer
10
116.686621
20
26.1733557
40
1.3284862
50
217.3009787
51
261.7098938
0
ARC
8
bottom_labelLayer
10
116.8272128
20
26.8442493
40
2.0130872
50
260.5033228
51
270.2476468
0
ARC
8
bottom_labelLayer
10
116.8540458
20
26.7137855
40
1.8826918
50
269.4481854
51
284.725594
0
ARC
8
bottom_labelLayer
10
117.0030881
20
26.1610392
40
1.310221
50
284.5662271
51
322.6333666
0
ARC
8
bottom_labelLayer
10
116.6546184
20
26.4127916
40
1.7400027
50
323.0089514
51
342.639042
0
ARC
8
bottom_labelLayer
10
115.6579353
20
26.7385363
40
2.7885127
50
342.3615691
51
353.7537767
0
ARC
8
bottom_labelLayer
10
114.1874971
20
26.9157812
40
4.269537
50
353.5362835
51
0.2014196
0
ARC
8
bottom_labelLayer
10
114.4127654
20
26.9514322
40
4.0442949
50
359.7075649
51
7.8972524
0
ARC
8
bottom_labelLayer
10
115.8939003
20
27.1637647
40
2.5480422
50
7.7440038
51
20.069008
0
ARC
8
bottom_labelLayer
10
116.7192491
20
27.4666361
40
1.6688782
50
20.0257107
51
37.4350558
0
ARC
8
bottom_labelLayer
10
116.9930923
20
27.6609518
40
1.3333734
50
37.9577466
51
80.400635
0
ARC
8
bottom_labelLayer
10
116.8374748
20
26.966597
40
2.0443029
50
79.345373
51
90.3174511
0
ARC
8
bottom_labelLayer
10
116.8086614
20
27.0819373
40
1.9290105
50
89.4805959
51
103.8804818
0
ARC
8
bottom_labelLayer
10
116.646575
20
27.6991652
40
1.2909559
50
103.4685247
51
142.3118945
0
ARC
8
bottom_labelLayer
10
116.9616833
20
27.4775585
40
1.6758882
50
142.902573
51
162.374969
0
ARC
8
bottom_labelLayer
10
117.9545813
20
27.1466762
40
2.7224045
50
162.0652912
51
173.1675107
0
ARC
8
bottom_labelLayer
10
119.5028253
20
26.9492073
40
4.283162
50
173.0086384
51
180.2463635
0
LINE
8
bottom_labelLayer
10
123.1786873
20
24.9190717
11
123.1786873
21
24.2989545
0
LINE
8
bottom_labelLayer
10
120.7763435
20
25.7882123
11
120.7763435
21
28.971806
0
LINE
8
bottom_labelLayer
10
120.7763435
20
28.971806
11
120.009742
21
28.971806
0
LINE
8
bottom_labelLayer
10
120.009742
20
28.971806
11
120.009742
21
29.362431
0
LINE
8
bottom_labelLayer
10
120.009742
20
29.362431
11
120.7763435
21
29.6993451
0
LINE
8
bottom_labelLayer
10
120.7763435
20
29.6993451
11
121.1181404
21
30.8419232
0
LINE
8
bottom_labelLayer
10
121.1181404
20
30.8419232
11
121.5868904
21
30.8419232
0
LINE
8
bottom_labelLayer
10
121.5868904
20
30.8419232
11
121.5868904
21
29.6016888
0
LINE
8
bottom_labelLayer
10
121.5868904
20
29.6016888
11
123.1396248
21
29.6016888
0
LINE
8
bottom_labelLayer
10
123.1396248
20
29.6016888
11
123.1396248
21
28.971806
0
LINE
8
bottom_labelLayer
10
123.1396248
20
28.971806
11
121.5868904
21
28.971806
0
LINE
8
bottom_labelLayer
10
121.5868904
20
28.971806
11
121.5868904
21
25.822392
0
ARC
8
bottom_labelLayer
10
122.4518228
20
27.4833729
40
2.6619633
50
269.8803835
51
278.3028088
0
ARC
8
bottom_labelLayer
10
122.4772177
20
27.276045
40
2.4531461
50
278.4151604
51
279.0078082
0
ARC
8
bottom_labelLayer
10
122.1784578
20
29.1845393
40
4.3848809
50
278.9589926
51
280.5103845
0
ARC
8
bottom_labelLayer
10
122.4631401
20
27.6570316
40
2.8310723
50
280.4847341
51
282.6268196
0
ARC
8
bottom_labelLayer
10
122.7127417
20
26.5481047
40
1.6944027
50
282.5878181
51
285.5794248
0
ARC
8
bottom_labelLayer
10
122.8382675
20
26.0865038
40
1.2160524
50
285.723602
51
286.256529
0
ARC
8
bottom_labelLayer
10
122.8379018
20
25.019737
40
0.7972842
50
287.9889939
51
295.3047539
0
ARC
8
bottom_labelLayer
10
122.6456074
20
25.6015326
40
1.41003
50
283.3069857
51
288.1196685
0
ARC
8
bottom_labelLayer
10
122.4424769
20
26.4488604
40
2.2813636
50
280.0070297
51
283.3735028
0
ARC
8
bottom_labelLayer
10
122.3062846
20
27.1880654
40
3.0329939
50
279.1866132
51
280.1141291
0
ARC
8
bottom_labelLayer
10
122.2231187
20
27.6611122
40
3.5132568
50
275.5261107
51
279.2938742
0
ARC
8
bottom_labelLayer
10
122.31715
20
26.6790349
40
2.5266888
50
270.893275
51
275.5483136
0
ARC
8
bottom_labelLayer
10
122.3289485
20
26.2326891
40
2.080219
50
270.0035655
51
270.760006
0
ARC
8
bottom_labelLayer
10
122.2963694
20
26.2692481
40
2.1170306
50
253.7848147
51
270.8852671
0
ARC
8
bottom_labelLayer
10
122.045558
20
25.4138835
40
1.2256562
50
190.3817547
51
253.8772429
0
ARC
8
bottom_labelLayer
10
123.3239359
20
25.7595353
40
2.5477537
50
179.355076
51
192.8477713
0
ARC
8
bottom_labelLayer
10
123.2190256
20
25.8121828
40
1.6321671
50
179.6416142
51
189.7505826
0
ARC
8
bottom_labelLayer
10
122.6428352
20
25.7094115
40
1.0469013
50
189.5478993
51
205.7874295
0
ARC
8
bottom_labelLayer
10
122.406052
20
25.6002224
40
0.7862115
50
206.1294529
51
221.4084401
0
ARC
8
bottom_labelLayer
10
122.3795037
20
25.580078
40
0.75298
50
221.5949468
51
262.3504817
0
ARC
8
bottom_labelLayer
10
122.4426468
20
25.9047815
40
1.083372
50
261.3266007
51
270.1913759
0
LINE
8
bottom_labelLayer
10
126.7089607
20
24.9190717
11
126.7089607
21
24.2989545
0
LINE
8
bottom_labelLayer
10
124.306617
20
25.7882123
11
124.306617
21
28.971806
0
LINE
8
bottom_labelLayer
10
124.306617
20
28.971806
11
123.5400154
21
28.971806
0
LINE
8
bottom_labelLayer
10
123.5400154
20
28.971806
11
123.5400154
21
29.362431
0
LINE
8
bottom_labelLayer
10
123.5400154
20
29.362431
11
124.306617
21
29.6993451
0
LINE
8
bottom_labelLayer
10
124.306617
20
29.6993451
11
124.6484139
21
30.8419232
0
LINE
8
bottom_labelLayer
10
124.6484139
20
30.8419232
11
125.1171639
21
30.8419232
0
LINE
8
bottom_labelLayer
10
125.1171639
20
30.8419232
11
125.1171639
21
29.6016888
0
LINE
8
bottom_labelLayer
10
125.1171639
20
29.6016888
11
126.6698982
21
29.6016888
0
LINE
8
bottom_labelLayer
10
126.6698982
20
29.6016888
11
126.6698982
21
28.971806
0
LINE
8
bottom_labelLayer
10
126.6698982
20
28.971806
11
125.1171639
21
28.971806
0
LINE
8
bottom_labelLayer
10
125.1171639
20
28.971806
11
125.1171639
21
25.822392
0
ARC
8
bottom_labelLayer
10
125.9820962
20
27.4833729
40
2.6619633
50
269.8803835
51
278.3028088
0
ARC
8
bottom_labelLayer
10
126.0074912
20
27.276045
40
2.4531461
50
278.4151604
51
279.0078082
0
ARC
8
bottom_labelLayer
10
125.7087313
20
29.1845393
40
4.3848809
50
278.9589926
51
280.5103845
0
ARC
8
bottom_labelLayer
10
125.9934135
20
27.6570316
40
2.8310723
50
280.4847341
51
282.6268196
0
ARC
8
bottom_labelLayer
10
126.2430151
20
26.5481047
40
1.6944027
50
282.5878181
51
285.5794248
0
ARC
8
bottom_labelLayer
10
126.368541
20
26.0865038
40
1.2160524
50
285.723602
51
286.256529
0
ARC
8
bottom_labelLayer
10
126.3681752
20
25.019737
40
0.7972842
50
287.9889939
51
295.3047539
0
ARC
8
bottom_labelLayer
10
126.1758808
20
25.6015326
40
1.41003
50
283.3069857
51
288.1196685
0
ARC
8
bottom_labelLayer
10
125.9727503
20
26.4488604
40
2.2813636
50
280.0070297
51
283.3735028
0
ARC
8
bottom_labelLayer
10
125.836558
20
27.1880654
40
3.0329939
50
279.1866132
51
280.1141291
0
ARC
8
bottom_labelLayer
10
125.7533921
20
27.6611122
40
3.5132568
50
275.5261107
51
279.2938742
0
ARC
8
bottom_labelLayer
10
125.8474234
20
26.6790349
40
2.5266888
50
270.893275
51
275.5483136
0
ARC
8
bottom_labelLayer
10
125.8592219
20
26.2326891
40
2.080219
50
270.0035655
51
270.760006
0
ARC
8
bottom_labelLayer
10
125.8266428
20
26.2692481
40
2.1170306
50
253.7848147
51
270.8852671
0
ARC
8
bottom_labelLayer
10
125.5758315
20
25.4138835
40
1.2256562
50
190.3817547
51
253.8772429
0
ARC
8
bottom_labelLayer
10
126.8542093
20
25.7595353
40
2.5477537
50
179.355076
51
192.8477713
0
ARC
8
bottom_labelLayer
10
126.749299
20
25.8121828
40
1.6321671
50
179.6416142
51
189.7505826
0
ARC
8
bottom_labelLayer
10
126.1731087
20
25.7094115
40
1.0469013
50
189.5478993
51
205.7874295
0
ARC
8
bottom_labelLayer
10
125.9363255
20
25.6002224
40
0.7862115
50
206.1294529
51
221.4084401
0
ARC
8
bottom_labelLayer
10
125.9097771
20
25.580078
40
0.75298
50
221.5949468
51
262.3504817
0
ARC
8
bottom_labelLayer
10
125.9729203
20
25.9047815
40
1.083372
50
261.3266007
51
270.1913759
0
ARC
8
bottom_labelLayer
10
128.2107345
20
26.9025649
40
4.1867979
50
349.1761703
51
0.3862653
0
ARC
8
bottom_labelLayer
10
129.620327
20
26.6215577
40
2.7495362
50
330.2507007
51
349.4116588
0
ARC
8
bottom_labelLayer
10
130.054129
20
26.3960832
40
2.2611094
50
318.1439898
51
329.7566466
0
ARC
8
bottom_labelLayer
10
130.1324236
20
26.3333381
40
2.1609332
50
278.8959126
51
317.9979246
0
ARC
8
bottom_labelLayer
10
129.930687
20
27.2998659
40
3.1474257
50
269.7502681
51
279.8033505
0
ARC
8
bottom_labelLayer
10
129.8979676
20
26.7552913
40
2.6028906
50
253.5436891
51
270.4182599
0
ARC
8
bottom_labelLayer
10
129.8113206
20
26.420124
40
2.2569384
50
238.8115406
51
253.2428565
0
ARC
8
bottom_labelLayer
10
129.7833599
20
26.3638951
40
2.1943629
50
207.7947077
51
238.6757957
0
ARC
8
bottom_labelLayer
10
130.1846735
20
26.6096715
40
2.6641534
50
205.6559998
51
208.4460407
0
ARC
8
bottom_labelLayer
10
130.4936824
20
26.7384213
40
2.998494
50
188.9102447
51
205.3171267
0
ARC
8
bottom_labelLayer
10
131.5352542
20
26.9148308
40
4.0548407
50
179.7744861
51
189.0932968
0
ARC
8
bottom_labelLayer
10
131.6888995
20
26.9592956
40
4.2085509
50
169.244298
51
180.388077
0
ARC
8
bottom_labelLayer
10
130.2597095
20
27.2417944
40
2.7517699
50
150.7111548
51
169.4695403
0
ARC
8
bottom_labelLayer
10
129.803463
20
27.4760938
40
2.2393051
50
138.1759271
51
150.2287439
0
ARC
8
bottom_labelLayer
10
129.7275733
20
27.5343308
40
2.1439295
50
99.1759269
51
137.9832757
0
ARC
8
bottom_labelLayer
10
129.9364591
20
26.5512837
40
3.1480957
50
89.7326552
51
100.075957
0
ARC
8
bottom_labelLayer
10
129.9782061
20
26.9758311
40
2.7236484
50
73.5222921
51
90.5692101
0
ARC
8
bottom_labelLayer
10
130.137932
20
27.5561614
40
2.121878
50
41.1445648
51
73.213376
0
ARC
8
bottom_labelLayer
10
129.8330278
20
27.2941012
40
2.5239143
50
13.5014371
51
41.0703286
0
ARC
8
bottom_labelLayer
10
128.6550501
20
26.9858388
40
3.7413892
50
1.1277007
51
13.8800198
0
ARC
8
bottom_labelLayer
10
127.6409403
20
26.9314702
40
4.756497
50
359.9918119
51
1.5420744
0
ARC
8
bottom_labelLayer
10
132.4248293
20
26.909726
40
4.1045945
50
179.7059623
51
187.9160759
0
ARC
8
bottom_labelLayer
10
130.9193821
20
26.6934692
40
2.5837186
50
187.7639004
51
200.0977067
0
ARC
8
bottom_labelLayer
10
130.0900475
20
26.3895981
40
1.700467
50
200.0845636
51
216.9131841
0
ARC
8
bottom_labelLayer
10
129.7872069
20
26.1733557
40
1.3284862
50
217.3009787
51
261.7098938
0
ARC
8
bottom_labelLayer
10
129.9277988
20
26.8442493
40
2.0130872
50
260.5033228
51
270.2476468
0
ARC
8
bottom_labelLayer
10
129.9546317
20
26.7137855
40
1.8826918
50
269.4481854
51
284.725594
0
ARC
8
bottom_labelLayer
10
130.103674
20
26.1610392
40
1.310221
50
284.5662271
51
322.6333666
0
ARC
8
bottom_labelLayer
10
129.7552044
20
26.4127916
40
1.7400027
50
323.0089514
51
342.639042
0
ARC
8
bottom_labelLayer
10
128.7585213
20
26.7385363
40
2.7885127
50
342.3615691
51
353.7537767
0
ARC
8
bottom_labelLayer
10
127.2880831
20
26.9157812
40
4.269537
50
353.5362835
51
0.2014196
0
ARC
8
bottom_labelLayer
10
127.5133513
20
26.9514322
40
4.0442949
50
359.7075649
51
7.8972524
0
ARC
8
bottom_labelLayer
10
128.9944862
20
27.1637647
40
2.5480422
50
7.7440038
51
20.069008
0
ARC
8
bottom_labelLayer
10
129.819835
20
27.4666361
40
1.6688782
50
20.0257107
51
37.4350558
0
ARC
8
bottom_labelLayer
10
130.0936782
20
27.6609518
40
1.3333734
50
37.9577466
51
80.400635
0
ARC
8
bottom_labelLayer
10
129.9380607
20
26.966597
40
2.0443029
50
79.345373
51
90.3174511
0
ARC
8
bottom_labelLayer
10
129.9092473
20
27.0819373
40
1.9290105
50
89.4805959
51
103.8804818
0
ARC
8
bottom_labelLayer
10
129.7471609
20
27.6991652
40
1.2909559
50
103.4685247
51
142.3118945
0
ARC
8
bottom_labelLayer
10
130.0622692
20
27.4775585
40
1.6758882
50
142.902573
51
162.374969
0
ARC
8
bottom_labelLayer
10
131.0551673
20
27.1466762
40
2.7224045
50
162.0652912
51
173.1675107
0
ARC
8
bottom_labelLayer
10
132.6034113
20
26.9492073
40
4.283162
50
173.0086384
51
180.2463635
0
LINE
8
bottom_labelLayer
10
141.4501717
20
24.2501263
11
140.6396248
21
24.2501263
0
LINE
8
bottom_labelLayer
10
140.6396248
20
24.2501263
11
140.6396248
21
27.7315717
0
LINE
8
bottom_labelLayer
10
138.0370857
20
27.2384076
11
138.0370857
21
24.2501263
0
LINE
8
bottom_labelLayer
10
138.0370857
20
24.2501263
11
137.2265389
21
24.2501263
0
LINE
8
bottom_labelLayer
10
137.2265389
20
24.2501263
11
137.2265389
21
27.7315717
0
LINE
8
bottom_labelLayer
10
134.6288826
20
27.0577435
11
134.6288826
21
24.2501263
0
LINE
8
bottom_labelLayer
10
134.6288826
20
24.2501263
11
133.8183357
21
24.2501263
0
LINE
8
bottom_labelLayer
10
133.8183357
20
24.2501263
11
133.8183357
21
29.6016888
0
LINE
8
bottom_labelLayer
10
133.8183357
20
29.6016888
11
134.4775154
21
29.6016888
0
LINE
8
bottom_labelLayer
10
134.4775154
20
29.6016888
11
134.6093514
21
28.869267
0
LINE
8
bottom_labelLayer
10
134.6093514
20
28.869267
11
134.6484139
21
28.869267
0
LINE
8
bottom_labelLayer
10
137.8710701
20
28.791142
11
137.9101326
21
28.791142
0
LINE
8
bottom_labelLayer
10
141.4501717
20
27.7413373
11
141.4501717
21
24.2501263
0
ARC
8
bottom_labelLayer
10
138.2485042
20
27.7443087
40
2.3911545
50
359.6947982
51
8.1471968
0
ARC
8
bottom_labelLayer
10
139.1292371
20
27.8746505
40
1.5008449
50
7.9864117
51
20.7949991
0
ARC
8
bottom_labelLayer
10
139.6160772
20
28.0611423
40
0.9795111
50
20.7071115
51
40.0217292
0
ARC
8
bottom_labelLayer
10
139.7228836
20
28.1310242
40
0.852914
50
41.0407963
51
73.179301
0
ARC
8
bottom_labelLayer
10
139.5683385
20
27.6635999
40
1.3451212
50
72.6395792
51
86.2568341
0
ARC
8
bottom_labelLayer
10
139.5188283
20
27.1293595
40
1.8815104
50
85.81445
51
90.0685292
0
ARC
8
bottom_labelLayer
10
139.5006391
20
26.9252699
40
2.0856595
50
89.5621346
51
101.2961992
0
ARC
8
bottom_labelLayer
10
139.3435522
20
27.6772897
40
1.3174551
50
101.0031962
51
121.7840459
0
ARC
8
bottom_labelLayer
10
139.2241281
20
27.8904951
40
1.0733731
50
122.3597037
51
140.2884199
0
ARC
8
bottom_labelLayer
10
139.4389844
20
27.7329547
40
1.3394086
50
140.9765245
51
161.1699717
0
ARC
8
bottom_labelLayer
10
140.2484048
20
27.4449004
40
2.1985115
50
160.8731929
51
172.5272335
0
ARC
8
bottom_labelLayer
10
141.6009024
20
27.2581097
40
3.5638273
50
172.3776331
51
180.1829556
0
ARC
8
bottom_labelLayer
10
142.5879927
20
27.2383033
40
4.5509071
50
179.8939112
51
179.9986875
0
ARC
8
bottom_labelLayer
10
134.8354183
20
27.7443087
40
2.3911545
50
359.6947982
51
8.1471968
0
ARC
8
bottom_labelLayer
10
135.7161512
20
27.8746505
40
1.5008449
50
7.9864117
51
20.7949991
0
ARC
8
bottom_labelLayer
10
136.2029913
20
28.0611423
40
0.9795111
50
20.7071115
51
40.0217292
0
ARC
8
bottom_labelLayer
10
136.3120174
20
28.1325579
40
0.8502327
50
41.061066
51
72.8993523
0
ARC
8
bottom_labelLayer
10
136.1545445
20
27.6637456
40
1.3446833
50
72.360075
51
85.956162
0
ARC
8
bottom_labelLayer
10
136.1012402
20
27.1128328
40
1.8980374
50
85.5238379
51
90.0794212
0
ARC
8
bottom_labelLayer
10
136.0830561
20
26.9977585
40
2.0131701
50
89.5573491
51
101.4832146
0
ARC
8
bottom_labelLayer
10
135.9285385
20
27.7217091
40
1.2729703
50
101.1546446
51
123.0655399
0
ARC
8
bottom_labelLayer
10
135.8235029
20
27.9046756
40
1.062394
50
123.7020097
51
142.3022263
0
ARC
8
bottom_labelLayer
10
136.0695421
20
27.7377593
40
1.3592648
50
143.0770063
51
161.391348
0
ARC
8
bottom_labelLayer
10
137.0612733
20
27.3875019
40
2.4109662
50
161.0234164
51
171.4469049
0
ARC
8
bottom_labelLayer
10
138.7031027
20
27.1303159
40
4.0727986
50
171.3042106
51
178.3501478
0
ARC
8
bottom_labelLayer
10
140.2719328
20
27.0602432
40
5.6430507
50
178.0975837
51
180.0253796
0
ARC
8
bottom_labelLayer
10
136.0215897
20
28.0617721
40
1.5930034
50
117.1209551
51
149.5423789
0
ARC
8
bottom_labelLayer
10
136.1841699
20
27.7728053
40
1.9243564
50
93.8343366
51
117.5072006
0
ARC
8
bottom_labelLayer
10
136.2290765
20
27.3750189
40
2.3243267
50
89.9662638
51
94.2831128
0
ARC
8
bottom_labelLayer
10
136.255979
20
27.0457275
40
2.6537404
50
77.557247
51
90.5512988
0
ARC
8
bottom_labelLayer
10
136.5022172
20
28.1048476
40
1.5664895
50
52.7026847
51
78.0053883
0
ARC
8
bottom_labelLayer
10
136.5899467
20
28.26807
40
1.3837924
50
22.2097854
51
51.4970615
0
ARC
8
bottom_labelLayer
10
139.3784738
20
27.9496328
40
1.6923839
50
119.4041852
51
150.1828949
0
ARC
8
bottom_labelLayer
10
139.56604
20
27.6644287
40
2.0330707
50
118.2581805
51
120.0630269
0
ARC
8
bottom_labelLayer
10
139.5656322
20
27.6433422
40
2.0514772
50
95.8635044
51
117.9693215
0
ARC
8
bottom_labelLayer
10
139.635061
20
27.1413092
40
2.5580382
50
89.9196528
51
96.2617159
0
ARC
8
bottom_labelLayer
10
139.6573527
20
26.8819065
40
2.8175006
50
79.9360838
51
90.3803711
0
ARC
8
bottom_labelLayer
10
139.845087
20
27.8986506
40
1.7836094
50
62.9723223
51
80.1665079
0
ARC
8
bottom_labelLayer
10
140.0413389
20
28.3012839
40
1.3357927
50
44.2289944
51
62.6229036
0
ARC
8
bottom_labelLayer
10
139.9829677
20
28.2754973
40
1.3957831
50
19.5612177
51
43.3161081
0
ARC
8
bottom_labelLayer
10
139.1352548
20
27.9570947
40
2.3012323
50
7.5041803
51
19.9645585
0
ARC
8
bottom_labelLayer
10
137.7325142
20
27.7601078
40
3.7177047
50
359.7107152
51
7.6907221
0
ENDSEC
0
EOF